<svg width="380" height="241" viewBox="0 0 380 241" fill="none" xmlns="http://www.w3.org/2000/svg">
<g clip-path="url(#clip0_1269_16305)">
<path d="M342.495 177.435C342.495 94.5401 275.386 27.3438 192.599 27.3438C109.812 27.3438 42.7021 94.5401 42.7021 177.435C42.7021 187.154 43.6359 196.651 45.399 205.853H339.798C341.561 196.651 342.495 187.154 342.495 177.435Z" fill="#FBF4EF"/>
<path d="M63.7932 53.8911C77.9665 47.4797 84.2654 30.7776 77.8623 16.586C71.4592 2.39431 54.7788 -3.91284 40.6055 2.49856C26.4322 8.90996 20.1332 25.612 26.5363 39.8037C32.9394 53.9954 49.6199 60.3025 63.7932 53.8911Z" fill="#FBF4EF"/>
<path d="M368.34 92.384C376.963 87.0143 379.607 75.6615 374.244 67.0269C368.881 58.3922 357.543 55.7455 348.92 61.1152C340.296 66.4849 337.653 77.8376 343.015 86.4723C348.378 95.1069 359.716 97.7537 368.34 92.384Z" fill="#FBF4EF"/>
<path d="M246.291 54.8399H329.527C329.527 54.8399 329.127 51.0938 319.876 48.0981C310.63 45.1024 303.989 52.7792 293.539 48.0981C283.083 43.417 277.542 36.6998 264.07 40.4459C250.598 44.1921 246.291 54.8399 246.291 54.8399Z" stroke="white" stroke-width="2.2156" stroke-miterlimit="10"/>
<path d="M50.9587 85.1206H107.901C107.901 85.1206 107.624 82.3648 101.297 80.1627C94.9693 77.9605 90.4294 83.6074 83.2786 80.1627C76.1278 76.718 72.3312 71.7785 63.1163 74.5343C53.9013 77.29 50.9587 85.1206 50.9587 85.1206Z" stroke="white" stroke-width="1.7477" stroke-miterlimit="10"/>
<path d="M379.404 124.335C379.404 126.193 377.924 127.7 376.093 127.7C374.262 127.7 372.782 126.193 372.782 124.335C372.782 122.478 374.262 120.971 376.093 120.971C377.924 120.971 379.404 122.478 379.404 124.335Z" stroke="white" stroke-width="1.9333" stroke-miterlimit="10"/>
<path d="M143.231 5.82568C143.231 7.68336 141.751 9.19042 139.92 9.19042C138.089 9.19042 136.609 7.68336 136.609 5.82568C136.609 3.968 138.089 2.46094 139.914 2.46094C141.744 2.46094 143.231 3.968 143.231 5.82568Z" stroke="white" stroke-width="1.9333" stroke-miterlimit="10"/>
<path d="M300.512 18.7799C300.512 20.1271 299.437 21.222 298.104 21.222C296.771 21.222 295.695 20.1271 295.695 18.7799C295.695 17.4328 296.771 16.3379 298.104 16.3379C299.437 16.3379 300.512 17.4328 300.512 18.7799Z" fill="white"/>
<path d="M5.32624 129.62C7.93874 129.62 10.0566 127.469 10.0566 124.816C10.0566 122.163 7.93874 120.012 5.32624 120.012C2.71375 120.012 0.595901 122.163 0.595901 124.816C0.595901 127.469 2.71375 129.62 5.32624 129.62Z" stroke="white" stroke-width="1.9333" stroke-miterlimit="10"/>
<path d="M228.525 161.374C231.013 149.914 234.447 139.026 240.873 127.548C247.311 116.045 256.759 104.013 271.067 89.4531C271.067 89.4531 270.619 92.418 269.445 97.3206C268.26 102.217 266.287 109.033 263.118 116.605C256.87 131.755 245.664 150.049 228.525 161.374Z" fill="#F9EBE3"/>
<path d="M223.579 168.496C228.494 159.528 226.417 147.508 222.615 136.842C218.794 126.12 213.32 116.715 211.803 112.059C211.803 112.059 208.117 122.996 207.447 135.427C206.882 147.853 209.216 162.111 223.579 168.496Z" fill="#F9EBE3"/>
<path d="M222.59 170.459C232.499 161.269 244.878 156.939 256.907 154.405C268.862 151.852 280.423 151.132 287.918 149.748C287.918 149.748 285.719 152.276 281.867 155.727C278.052 159.215 272.548 163.595 266.122 167.384C253.251 174.993 236.48 179.668 222.59 170.459Z" fill="#F9EBE3"/>
<path d="M207.674 190.05C215.912 179.402 212.177 165.273 206.31 154.299C200.407 143.245 192.463 135.07 192.463 135.07C192.463 135.07 191.825 137.555 191.284 141.529C190.713 145.484 190.19 150.916 190.43 156.84C190.922 168.632 194.196 182.552 207.674 190.05Z" fill="#F9EBE3"/>
<path d="M208.215 189.349C217.583 182.583 230.454 179.064 243.563 178.646C256.673 178.283 270.133 181.119 280.165 188.107C280.165 188.107 273.481 192.253 264.082 195.199C254.695 198.176 242.636 199.837 232.334 195.537C222.013 191.219 216.035 189.614 212.595 189.171C209.143 188.697 208.215 189.349 208.215 189.349Z" fill="#F9EBE3"/>
<path d="M196.506 200.047C196.561 200.386 196.592 200.712 196.604 201.025C196.77 201.044 196.942 201.068 197.108 201.087C197.403 201.093 197.704 201.111 197.999 201.118C200.419 194.825 199.24 186.545 194.884 179.164C189.502 169.931 179.317 162.131 165.992 160.113C165.992 160.113 166.963 165.336 169.807 171.579C172.682 177.817 177.468 185.186 185.558 189.092C193.416 192.856 195.965 196.898 196.506 200.047Z" fill="#F9EBE3"/>
<path d="M111.98 164.462C104.295 158.483 97.3467 151.987 90.9516 142.975C84.5441 133.952 78.7387 122.424 72.6691 106.283C72.6691 106.283 74.721 107.68 77.9769 110.325C81.2206 112.97 85.6253 116.906 90.1959 122.024C99.3802 132.186 109.252 147.281 111.98 164.462Z" fill="#F9EBE3"/>
<path d="M115.635 170.78C110.604 163.823 100.99 161.153 91.8116 160.286C82.5905 159.412 73.7933 160.273 69.8309 159.781C69.8309 159.781 76.7298 166.492 85.7359 171.419C94.7788 176.267 106.138 179.539 115.635 170.78Z" fill="#F9EBE3"/>
<path d="M116.766 172.243C113.227 161.374 114.106 150.339 116.207 140.208C118.271 130.126 121.57 120.997 123.02 114.76C123.02 114.76 124.168 117.343 125.452 121.526C126.779 125.691 128.211 131.473 128.893 137.747C130.281 150.314 128.198 164.843 116.766 172.243Z" fill="#F9EBE3"/>
<path d="M126.368 190.641C121.189 180.541 109.467 178.388 99.3679 178.997C89.2007 179.606 80.5018 182.798 80.5018 182.798C80.5018 182.798 82.1359 184.17 84.9066 185.997C87.6588 187.843 91.5106 190.168 95.9891 192.087C104.921 195.888 116.336 198.318 126.368 190.641Z" fill="#F9EBE3"/>
<path d="M126.03 189.971C124.107 180.375 125.759 169.254 129.79 159.043C133.863 148.856 140.424 139.531 148.932 134.309C148.932 134.309 149.798 140.909 148.871 149.17C147.974 157.431 145.215 167.279 138.611 173.652C131.989 180.037 128.819 184.054 127.351 186.539C125.852 189.03 126.03 189.971 126.03 189.971Z" fill="#F9EBE3"/>
<path d="M132.781 203.393C129.753 197.137 131.577 188.304 136.793 180.935C142.052 173.59 150.775 167.697 162.011 168.417C162.011 168.417 160.911 173.197 157.926 178.425C154.959 183.66 150.161 189.239 143.145 191.189C136.357 193.096 133.795 196.184 132.904 198.743C132.026 201.302 132.781 203.393 132.781 203.393Z" fill="#F9EBE3"/>
<path fill-rule="evenodd" clip-rule="evenodd" d="M123.087 206.008C123.431 205.989 123.788 206.008 124.156 206.069C126.183 206.408 128.34 206.02 130.422 205.928C130.435 205.909 130.447 205.903 130.459 205.885C132.493 203.406 128.008 204.808 134.962 196.332C138.482 192.044 135.822 177.441 123.517 164.874C128.536 174.796 126.392 188.391 125.286 184.7C124.138 180.88 124.224 164.536 117.915 159.886C111.919 155.469 103.883 150.899 94.7113 148.266C104.08 159.547 106.341 169.888 103.085 169.931C101.672 169.949 95.5959 148.026 85.484 146.187C77.1107 144.661 67.5149 144.366 56.629 145.375C57.5566 154.3 58.1095 162.66 61.476 169.125C69.45 184.454 93.8819 182.842 95.6819 187.099C97.0642 190.353 74.6534 187.48 64.9716 179.268C69.4132 189.701 77.6268 199.137 83.6288 203.35C89.6246 207.564 104.565 200.103 108.521 200.047C112.324 199.992 111.145 203.535 100.898 205.928C101.573 205.885 100.234 206.014 100.898 205.928C102.046 205.682 102.089 206.082 103.238 205.836C104.332 205.602 105.505 205.546 106.304 205.909C108.208 205.737 110.149 205.885 112.066 205.928C113.055 205.946 113.829 205.792 114.806 205.928C117.626 205.436 120.237 205.786 123.087 206.008Z" fill="#D0DBE4"/>
<path d="M68.3442 156.613C68.3442 156.613 92.4935 170.46 125.846 205.559" stroke="#FBF4EF" stroke-width="1.046" stroke-miterlimit="10"/>
<path d="M88.568 161.27L93.2922 174.888" stroke="#FBF4EF" stroke-width="1.046" stroke-miterlimit="10"/>
<path fill-rule="evenodd" clip-rule="evenodd" d="M322.407 174.241C325.957 167.5 326.578 158.771 327.592 149.452C316.226 148.345 306.201 148.603 297.446 150.153C286.868 152.023 280.411 174.893 278.937 174.869C275.533 174.813 277.954 164.018 287.795 152.281C278.199 154.982 269.783 159.718 263.498 164.301C256.876 169.123 256.888 186.206 255.666 190.185C254.486 194.03 252.318 179.821 257.613 169.48C244.694 182.546 241.843 197.788 245.492 202.285C252.711 211.174 258.51 201.381 260.623 203.983C261.219 204.715 261.428 204.967 260.666 205.963C261.68 205.723 262.067 206.013 262.989 205.982C264.15 205.939 265.618 205.52 266.57 205.853C267.191 205.828 267.596 205.742 268.217 205.711C268.456 205.68 269.156 205.699 269.378 205.711C274.016 205.502 277.935 205.853 282.58 205.89C283.366 205.896 284.152 205.914 284.932 205.939C291.315 205.551 297.668 205.225 304.057 205.723C309.383 200.606 315.151 193.015 318.69 184.815C308.535 193.341 285.111 196.232 286.567 192.837C288.489 188.408 314.003 190.21 322.407 174.241Z" fill="#D0DBE4"/>
<path d="M315.299 161.133C315.299 161.133 296.697 169.216 261.68 205.717" stroke="#FBF4EF" stroke-width="1.046" stroke-miterlimit="10"/>
<path d="M294.141 165.9L289.478 179.163" stroke="#FBF4EF" stroke-width="1.046" stroke-miterlimit="10"/>
<path fill-rule="evenodd" clip-rule="evenodd" d="M172.283 205.626C173.216 202.267 173.837 198.49 173.966 194.375C172.246 199.278 168.72 203.534 165.9 206.142C168.038 206.025 170.157 205.693 172.283 205.626Z" fill="#94D0DB"/>
<path fill-rule="evenodd" clip-rule="evenodd" d="M133.949 205.909C134.888 205.921 135.828 205.902 136.762 205.872C135.503 204.887 134.016 203.657 132.265 202.113C132.572 203.454 132.861 204.715 133.131 205.921C133.408 205.915 133.678 205.909 133.949 205.909Z" fill="#94D0DB"/>
<path d="M145.504 204.875C146.358 204.814 147.089 204.974 147.703 205.269C149.608 205.023 151.512 204.968 153.429 204.943C154.289 204.881 155.149 204.851 156.009 204.845C157.428 204.678 158.841 204.463 160.291 204.346C161.999 204.205 163.707 204.272 165.421 204.266C157.944 182.737 136.615 131.282 97.7768 110.447C97.7768 110.447 88.568 146.161 137.77 205.601C139.791 205.472 141.781 205.238 143.79 205.041C144.361 204.974 144.933 204.918 145.504 204.875Z" fill="#EDD0C1"/>
<path d="M105.069 126.662L151.365 204.635" stroke="#FBF4EF" stroke-width="1.046" stroke-miterlimit="10"/>
<path d="M127.24 164L128.923 146.334" stroke="#FBF4EF" stroke-width="1.046" stroke-miterlimit="10"/>
<path d="M131.59 185.303L142.174 189.153" stroke="#FBF4EF" stroke-width="1.046" stroke-miterlimit="10"/>
<path d="M212.435 202.138C215.304 202.575 218.345 202.981 221.202 203.473C222.258 203.658 223.162 203.633 224.31 203.947C225.349 203.867 226.061 204.519 226.977 204.63C227.136 204.648 227.284 204.679 227.437 204.703C281.664 145.627 273.598 108.424 273.598 108.424C218.345 138.011 214.794 171.031 204.154 200.748C206.188 201.136 208.221 201.542 210.267 201.868C210.973 201.972 211.944 201.818 212.435 202.138Z" fill="#EDD0C1"/>
<path d="M265.679 124.338L215.046 202.527" stroke="#FBF4EF" stroke-width="1.046" stroke-miterlimit="10"/>
<path d="M242.083 160.777L241.106 143.504" stroke="#FBF4EF" stroke-width="1.046" stroke-miterlimit="10"/>
<path d="M236.904 181.9L226.178 185.333" stroke="#FBF4EF" stroke-width="1.046" stroke-miterlimit="10"/>
<path d="M69.3394 206.068C69.3394 206.068 40.3 186.021 43.8509 145.65" stroke="#E2C2AF" stroke-width="2.0622" stroke-miterlimit="10"/>
<path d="M44.2871 148.645C47.2999 148.645 49.7423 146.2 49.7423 143.183C49.7423 140.166 47.2999 137.721 44.2871 137.721C41.2742 137.721 38.8318 140.166 38.8318 143.183C38.8318 146.2 41.2742 148.645 44.2871 148.645Z" fill="#D0DBE4"/>
<path d="M48.0713 135.55C48.1942 137.272 46.898 138.773 45.1778 138.896C43.4577 139.019 41.9587 137.721 41.8359 135.999C41.713 134.277 43.0093 132.776 44.7294 132.653C46.4495 132.53 47.9423 133.827 48.0713 135.55Z" fill="#D0DBE4"/>
<path d="M68.6452 205.349C68.676 205.361 38.4202 208.486 25.722 178.936" stroke="#E2C2AF" stroke-width="2.0622" stroke-miterlimit="10"/>
<path d="M28.7506 174.727C30.0346 176.745 29.4387 179.427 27.4176 180.706C25.4026 181.992 22.7241 181.395 21.4463 179.371C20.1623 177.354 20.7582 174.672 22.7794 173.392C24.8005 172.113 27.4667 172.71 28.7506 174.727Z" fill="#D0DBE4"/>
<path d="M25.199 172.176C25.4974 170.837 24.6548 169.508 23.317 169.21C21.9792 168.911 20.6528 169.755 20.3544 171.094C20.056 172.434 20.8986 173.762 22.2364 174.061C23.5742 174.359 24.9006 173.516 25.199 172.176Z" fill="#D0DBE4"/>
<path d="M313.591 206.068C313.591 206.068 342.63 186.021 339.073 145.65" stroke="#E2C2AF" stroke-width="2.0622" stroke-miterlimit="10"/>
<path d="M333.207 142.789C332.991 145.797 335.246 148.412 338.256 148.633C341.26 148.848 343.871 146.591 344.092 143.577C344.307 140.569 342.053 137.954 339.043 137.733C336.032 137.518 333.422 139.781 333.207 142.789Z" fill="#D0DBE4"/>
<path d="M334.865 135.55C334.742 137.272 336.039 138.773 337.759 138.896C339.479 139.019 340.978 137.721 341.101 135.999C341.224 134.277 339.927 132.776 338.207 132.653C336.487 132.53 334.988 133.827 334.865 135.55Z" fill="#D0DBE4"/>
<path d="M314.291 205.347C314.261 205.359 344.516 208.484 357.215 178.934" stroke="#E2C2AF" stroke-width="2.0622" stroke-miterlimit="10"/>
<path d="M354.18 174.727C352.896 176.745 353.492 179.427 355.513 180.706C357.528 181.992 360.206 181.395 361.484 179.371C362.768 177.354 362.172 174.672 360.151 173.392C358.136 172.113 355.464 172.71 354.18 174.727Z" fill="#D0DBE4"/>
<path d="M360.694 174.072C362.033 173.775 362.878 172.448 362.581 171.108C362.285 169.768 360.96 168.922 359.622 169.219C358.283 169.515 357.439 170.842 357.735 172.182C358.031 173.522 359.356 174.368 360.694 174.072Z" fill="#D0DBE4"/>
<path d="M9.72485 206.068H374.864" stroke="#E2C2AF" stroke-width="1.9057" stroke-miterlimit="10"/>
<path d="M93.3045 216.271L40.3123 239.862H341.783L290.253 216.271H93.3045Z" stroke="#E2C2AF" stroke-width="1.9057" stroke-miterlimit="10"/>
<path d="M172.51 169.676L162.103 186.616L182.069 210.348H202.201L220.975 186.21L209.351 169.676H172.51Z" fill="#AAB5FB"/>
<path d="M162.103 186.617C162.103 186.617 117.325 190.08 106.095 201.829C94.8649 213.572 101.34 221.353 111.089 226.317C124.813 233.318 165.341 231.817 191.001 223.316L195.197 198.827L162.103 186.617Z" fill="#AAB5FB"/>
<path d="M219.813 186.025C219.813 186.025 266.699 190.073 277.935 201.822C289.165 213.565 282.69 221.346 272.941 226.31C259.21 233.31 209.745 232.148 184.084 223.653L188.827 198.82L219.813 186.025Z" fill="#AAB5FB"/>
<path d="M230.325 206.066L220.243 204.866L218.708 200.887L222.658 199.134C222.658 199.134 222.111 193.505 226.946 192.57C231.774 191.635 237.537 195.535 243.152 193.019C248.331 190.694 254.664 188.566 260.568 191.777C261.44 192.25 261.852 193.29 261.551 194.237L261.526 194.311C261.225 195.264 260.292 195.855 259.296 195.756C257.214 195.541 253.491 195.59 249.823 197.817C246.101 200.069 237.113 203.562 230.325 206.066Z" fill="#EAB49B"/>
<path d="M198.324 203.391L218.118 201.447" stroke="#462C3B" stroke-width="1.2951" stroke-miterlimit="10" stroke-linecap="round"/>
<path d="M186.99 224.552C171.214 220.904 154.701 211.548 154.701 211.548L155.684 209.875" stroke="#462C3B" stroke-width="1.2951" stroke-miterlimit="10" stroke-linecap="round"/>
<path d="M161.557 203.126C161.557 203.126 234.57 200.875 253.301 212.698" stroke="#462C3B" stroke-width="1.2951" stroke-miterlimit="10" stroke-linecap="round"/>
<path d="M126.011 207.828C126.011 207.828 139.238 201.627 148.275 205.687" stroke="#462C3B" stroke-width="1.2951" stroke-miterlimit="10" stroke-linecap="round"/>
<path d="M156.722 210.336L161.557 202.967L156.722 200.347C156.722 200.347 157.705 194.78 152.962 193.47C148.219 192.159 142.168 195.598 136.774 192.652C131.792 189.933 125.649 187.312 119.506 190.05C118.596 190.456 118.111 191.458 118.332 192.43L118.351 192.504C118.578 193.482 119.463 194.14 120.458 194.116C122.553 194.066 126.257 194.399 129.74 196.908C135.749 201.239 156.722 210.336 156.722 210.336Z" fill="#EAB49B"/>
<path d="M173.149 194.799L184.188 202.808" stroke="#462C3B" stroke-width="1.2951" stroke-miterlimit="10" stroke-linecap="round"/>
<path d="M220.366 95.4989C212.896 83.424 211.643 63.5677 211.643 63.5677L193.274 55.977V55.3496L192.162 55.6633L191.057 55.3558V55.977L172.83 63.3832C172.83 63.3832 170.845 84.0268 163.375 96.1017C155.991 108.035 161.292 122.94 192.162 120.744C223.039 122.94 227.744 107.432 220.366 95.4989Z" fill="#001314"/>
<path d="M202.416 104.694L220.188 110.396C223.512 111.614 224.36 115.311 223.487 118.743L209.351 169.682H172.51L159.738 117.673C159.204 115.286 160.371 111.798 162.644 110.894L181.866 103.82L202.416 104.694Z" fill="#F17B94"/>
<path d="M215.532 131.108L234.109 172.716C235.571 176.763 239.798 179.101 244 178.19C249.043 177.089 251.986 171.818 250.266 166.946C246.611 156.569 235.614 135.58 231.848 125.191C230.017 120.135 224.077 117.945 219.408 120.602C215.734 122.687 214.094 127.129 215.532 131.108Z" fill="#EAB49B"/>
<path d="M220.839 110.889C220.839 110.889 226.915 111.436 234.453 131.36L216.816 140.532L211.078 123.443L220.839 110.889Z" fill="#F17B94"/>
<path d="M218.026 139.517L220.508 128.211" stroke="#462C3B" stroke-width="1.2951" stroke-miterlimit="10" stroke-linecap="round"/>
<path d="M238.575 158.689C238.071 158.522 238.354 159.599 193.833 140.721L191.923 143.28C191.831 145.931 192.439 148.477 194.079 149.554L238.077 177.327L238.575 158.689Z" fill="#EAB49B"/>
<path d="M191.917 143.281L191.653 121.548C191.646 121.056 192.04 120.656 192.531 120.656C192.961 120.656 193.33 120.97 193.397 121.401L199.283 147.144L191.917 143.281Z" fill="#EAB49B"/>
<path d="M225.754 153.996L234.459 157.379" stroke="#DC9C82" stroke-width="0.9529" stroke-miterlimit="10"/>
<path d="M167.946 131.108L149.368 172.716C147.906 176.763 143.68 179.101 139.478 178.19C134.434 177.089 131.491 171.818 133.211 166.946C136.867 156.569 147.863 135.58 151.629 125.191C153.46 120.135 159.4 117.945 164.069 120.602C167.749 122.687 169.383 127.129 167.946 131.108Z" fill="#EAB49B"/>
<path d="M162.644 110.889C162.644 110.889 156.568 111.436 149.03 131.36L166.668 140.532L172.406 123.443L162.644 110.889Z" fill="#F17B94"/>
<path d="M164.923 139.517L162.441 128.211" stroke="#462C3B" stroke-width="1.2951" stroke-miterlimit="10" stroke-linecap="round"/>
<path d="M144.908 158.689C145.412 158.522 145.129 159.599 189.65 140.721L191.56 143.28C191.745 146.281 190.848 148.6 189.201 149.683L145.406 177.333L144.908 158.689Z" fill="#EAB49B"/>
<path d="M191.56 143.281L191.825 121.548C191.831 121.056 191.438 120.656 190.946 120.656C190.516 120.656 190.147 120.97 190.08 121.401L184.195 147.144L191.56 143.281Z" fill="#EAB49B"/>
<path d="M191.72 121.203L191.923 144.381" stroke="#DC9C82" stroke-width="0.9529" stroke-miterlimit="10"/>
<path d="M157.729 153.996L149.424 157.379" stroke="#DC9C82" stroke-width="0.9529" stroke-miterlimit="10"/>
<path d="M185.006 102.024L171.349 107.566C171.349 107.566 180.109 112.629 191.216 112.666C203.638 112.702 212.509 107.861 212.509 107.861L198.257 101.439L185.006 102.024Z" fill="#EAB49B"/>
<path d="M198.281 88.4553C198.281 88.4553 196.174 88.5291 193.225 89.0766C190.283 89.624 187.881 88.0739 187.285 90.0731C187.272 90.1161 184.883 88.0801 184.883 88.0801L183.654 107.715C183.654 107.715 191.474 112.488 199.977 107.469L198.281 88.4553Z" fill="#EAB49B"/>
<path d="M183.021 85.9019C183.021 85.9019 186.572 94.7167 198.896 95.3318L197.863 83.5645L183.021 85.9019Z" fill="#472D3C"/>
<path d="M211.741 63.6715C211.741 74.9098 203.005 84.0199 192.23 84.0199C181.455 84.0199 172.719 74.9098 172.719 63.6715C172.719 52.4331 181.455 44.7871 192.23 44.7871C203.005 44.7871 211.741 52.4331 211.741 63.6715Z" fill="#001314"/>
<path d="M207.533 64.0658C207.533 70.457 206.612 75.9746 205.684 79.893C204.781 83.7252 202.237 86.4072 198.644 88.5601L197.992 88.9538C194.19 91.2359 189.281 91.2913 185.423 89.0891C181.528 86.8747 178.807 83.9467 177.965 79.8376C176.442 72.3577 176.276 64.0719 176.276 64.0719C176.276 64.0719 174.826 47.931 191.683 48.2447C208.54 48.5523 207.533 64.0658 207.533 64.0658Z" fill="#EAB49B"/>
<path d="M178.119 80.1448C175.275 82.8944 168.185 74.8116 170.814 71.5822C173.235 68.605 176.681 72.0005 176.681 72.0005L177.265 75.0331L178.131 79.1175L178.352 80.034L178.119 80.1448Z" fill="#EAB49B"/>
<path d="M205.678 79.9471C208.694 82.3215 215.998 73.5252 213.074 70.9847C210.15 68.4443 206.968 71.7844 206.968 71.7844L206.44 74.8293L205.647 78.926L205.438 79.8426L205.678 79.9471Z" fill="#EAB49B"/>
<path d="M173.382 69.226L176.97 73.7718L176.245 62.6934L173.382 69.226Z" fill="#001314"/>
<path d="M210.021 69.226L206.777 73.6672L207.521 62.6934L210.021 69.226Z" fill="#001314"/>
<path d="M192.156 73.2363L192.42 75.2785L191.505 75.8568" stroke="#462C3B" stroke-width="1.5542" stroke-miterlimit="10" stroke-linecap="round"/>
<path d="M186.744 79.959H196.622C196.622 79.959 195.511 81.5829 191.683 81.5829C187.555 81.5829 186.744 79.959 186.744 79.959Z" fill="#D3626C"/>
<path d="M186.744 79.9587L188.999 78.7899C189.435 78.5623 190.068 78.5377 190.553 78.7223L191.745 79.1836L192.808 78.7592C193.293 78.5685 193.932 78.5869 194.374 78.8145L196.616 79.9587H186.744Z" fill="#D3626C"/>
<path d="M186.744 70.0488C186.744 70.0488 184.87 71.6482 182.53 70.0488" stroke="#462C3B" stroke-width="1.5542" stroke-miterlimit="10" stroke-linecap="round"/>
<path d="M200.56 70.0488C200.56 70.0488 198.687 71.6482 196.346 70.0488" stroke="#462C3B" stroke-width="1.5542" stroke-miterlimit="10" stroke-linecap="round"/>
<path d="M194.81 65.0979C194.81 65.0979 199.835 65.3562 203.184 67.3984C203.184 67.3984 203.184 65.2885 199.995 64.3536C196.807 63.4186 194.81 65.0979 194.81 65.0979Z" fill="#472D3C"/>
<path d="M188.378 65.0979C188.378 65.0979 183.353 65.3562 180.005 67.3984C180.005 67.3984 180.005 65.2885 183.193 64.3536C186.382 63.4186 188.378 65.0979 188.378 65.0979Z" fill="#472D3C"/>
<path d="M178.113 51.4806C178.113 51.4806 183.98 63.3771 209.321 63.9738C209.321 63.9738 212.061 52.7108 199.068 48.2388C186.081 43.7607 178.113 51.4806 178.113 51.4806Z" fill="#001314"/>
<path d="M174.513 65.9479C174.513 65.9479 182.333 63.6473 183.347 50.7051C183.341 50.7112 175.422 51.9169 174.513 65.9479Z" fill="#001314"/>
<path d="M176.651 76.3489C176.651 76.3489 176.251 74.1898 173.272 74.2513" stroke="#462C3B" stroke-width="1.2951" stroke-miterlimit="10" stroke-linecap="round"/>
<path d="M206.919 76.3489C206.919 76.3489 207.318 74.1898 210.297 74.2513" stroke="#462C3B" stroke-width="1.2951" stroke-miterlimit="10" stroke-linecap="round"/>
</g>
<defs>
<clipPath id="clip0_1269_16305">
<rect width="380" height="240.447" fill="white"/>
</clipPath>
</defs>
</svg>
