<svg width="72" height="72" viewBox="0 0 72 72" fill="none" xmlns="http://www.w3.org/2000/svg">
<path fill-rule="evenodd" clip-rule="evenodd" d="M66 36C66 52.5685 52.5685 66 36 66C19.4315 66 6 52.5685 6 36C6 19.4315 19.4315 6 36 6C52.5685 6 66 19.4315 66 36ZM36 21.75C37.2426 21.75 38.25 22.7574 38.25 24V33.75H48C49.2426 33.75 50.25 34.7574 50.25 36C50.25 37.2426 49.2426 38.25 48 38.25H38.25V48C38.25 49.2426 37.2426 50.25 36 50.25C34.7574 50.25 33.75 49.2426 33.75 48V38.25H24C22.7574 38.25 21.75 37.2426 21.75 36C21.75 34.7574 22.7574 33.75 24 33.75H33.75V24C33.75 22.7574 34.7574 21.75 36 21.75Z" fill="#006D77"/>
</svg>
