<svg width="381" height="87" viewBox="0 0 381 87" fill="none" xmlns="http://www.w3.org/2000/svg">
<g opacity="0.36">
<path d="M194.462 86.6525C193.091 86.4787 192.024 86.0732 190.957 85.6678C190.5 85.494 189.89 85.3202 189.433 85.1465C187.452 84.5093 185.623 83.8142 184.099 82.9454C181.508 81.4394 181.051 79.7597 182.575 77.6744C183.642 76.2264 185.318 74.7783 186.842 73.3881C187.3 72.9827 187.757 72.5772 188.214 72.1718C190.5 70.0286 193.243 67.5379 194.31 64.9314C195.224 62.7304 193.548 60.4714 189.89 58.8495C186.538 57.3435 181.813 56.5326 176.784 56.4747H176.327H175.717H175.108C173.888 56.4747 172.669 56.4747 171.298 56.3589C168.402 56.1851 166.573 55.49 165.811 54.3895C165.354 53.8103 165.202 53.1731 165.202 52.5939C165.202 50.9141 165.049 49.3502 164.44 47.7863C163.068 44.4268 158.496 42.1678 150.114 40.7776C148.133 40.488 146.456 40.1984 144.628 39.9667C141.732 39.5033 138.684 39.0399 135.788 38.5186C128.626 37.1864 122.834 35.217 118.72 32.6684C118.11 32.3209 117.5 31.9154 116.891 31.5679C115.367 30.5832 113.843 29.5406 111.862 28.6138C109.271 27.2237 106.375 26.5866 103.022 26.5866C100.889 26.5866 98.4504 26.8762 95.8596 27.4554C85.8012 29.6565 80.01 33.1318 78.3336 37.8236C77.5716 40.0826 78.0288 42.3415 79.4004 44.8322C79.5528 45.2377 79.8576 45.5852 80.1624 45.9907C80.772 47.0333 81.3816 48.0759 81.8388 49.1764C82.4484 50.7403 82.1436 52.4201 81.2292 54.2736C79.5528 57.3435 77.4192 59.7184 74.3712 61.6877C70.7136 64.0626 65.532 65.4527 58.9788 65.8003C56.8452 65.9161 54.7116 65.974 52.578 65.974C44.958 65.974 37.338 65.279 29.2608 63.8309C28.0416 63.6571 26.9748 63.4254 25.908 63.1937C22.4028 62.5566 18.7452 61.8615 14.9352 61.4561C11.8872 61.1085 8.8392 60.9348 5.4864 60.8768C4.8768 60.8768 4.2672 60.8189 3.81 60.8189C3.048 60.761 2.286 60.761 1.524 60.761C1.3716 60.761 1.2192 60.761 0.9144 60.6451V54.6212C1.0668 54.5633 1.2192 54.5632 1.3716 54.5632C1.6764 54.5632 1.8288 54.5633 2.1336 54.6212C2.286 54.6212 2.4384 54.6791 2.5908 54.6791C12.8016 55.4321 21.336 56.8802 28.956 59.0812C32.766 60.1818 36.1188 61.1085 39.624 61.8036C44.0436 62.7304 48.4632 63.1937 53.0352 63.2517C53.34 63.2517 53.6448 63.2517 54.102 63.2517C60.96 63.2517 66.294 62.1511 69.7992 59.9501C73.152 57.749 74.9808 55.2004 75.2856 52.4201C75.438 50.5666 74.5236 48.8289 73.4568 47.1491C71.7804 44.6005 71.1708 42.4574 71.3232 40.4301C71.7804 37.4181 72.6948 33.8848 76.8096 30.6991C78.486 29.3668 80.6196 28.0925 83.82 26.6445C84.8868 26.1232 85.9536 25.6598 87.0204 25.1385C90.3732 23.5746 93.726 21.9527 97.536 20.5047C99.6696 19.52 101.651 18.8249 103.632 18.3036C108.052 17.0872 111.709 15.5233 115.214 13.5539C119.024 11.3529 123.139 9.49933 127.406 7.81957C130.302 6.71904 133.655 5.73435 136.855 4.80759L138.379 4.34421C142.037 3.3016 144.475 2.08522 145.847 0.63715C145.999 0.521305 146.304 0.405459 146.609 0.289614H164.897C165.202 0.405459 165.506 0.521305 165.659 0.752996C166.726 2.49068 169.316 3.76498 171.755 4.80759C178.003 7.47204 182.423 10.1944 185.623 13.2064C187.604 15.1178 190.043 17.1451 193.548 18.8249C196.596 20.273 200.254 21.6052 204.064 22.7057L206.654 23.4587C210.617 24.6172 214.732 25.8336 218.846 26.8762C221.894 27.6292 224.942 28.0346 228.143 28.0925C228.295 28.0925 228.6 28.0925 228.752 28.0925C232.41 28.0925 235.61 27.5133 238.354 26.4128C240.64 25.486 242.621 24.3276 244.754 22.7057C246.888 21.0839 248.564 19.3462 250.393 17.6664C251.003 17.0872 251.612 16.4501 252.222 15.8708C253.898 14.1911 255.575 12.8589 257.251 11.6425C259.08 10.3103 259.69 9.09387 259.08 7.81957C258.166 5.79228 258.013 3.70706 257.861 1.96937C257.861 1.73768 257.861 1.50599 258.013 1.21638C258.166 0.984687 258.166 0.752996 258.166 0.521305C258.166 0.405459 258.318 0.347537 258.47 0.289614H274.472C274.93 0.405459 275.234 0.521305 275.539 0.810919C276.758 1.85353 277.673 2.60652 278.892 3.24367C282.397 5.21305 287.426 6.31358 294.132 6.66112C295.656 6.77696 297.028 6.77696 298.552 6.77696C299.466 6.77696 300.38 6.77696 301.295 6.77696C302.971 6.83489 304.648 6.83489 306.172 6.89281C309.829 6.95073 313.487 7.00866 317.144 7.29827C323.698 7.8775 327.965 9.78895 328.727 12.4534C329.184 14.0752 329.184 15.3495 328.727 16.5659C327.355 19.7517 321.869 22.0107 314.096 22.5899C312.268 22.7057 310.591 22.8216 308.762 22.8216C304.8 22.8216 300.685 22.474 296.723 21.721C294.132 21.1997 291.541 20.6205 288.95 19.9834C287.884 19.7517 286.969 19.52 285.902 19.2883C284.378 18.9407 282.55 18.5932 280.721 18.3036C278.892 18.014 276.911 17.8402 274.93 17.8402C272.034 17.8402 268.986 18.1877 265.938 18.8828C262.433 19.6937 259.385 20.8522 256.489 22.5899C253.898 24.1538 251.612 25.8915 249.631 27.5133C249.022 27.9767 248.412 28.498 247.802 28.9614C246.583 29.8881 245.364 30.6411 243.84 31.3362C241.554 32.3209 238.658 32.8422 234.391 32.9581C233.934 32.9581 233.477 32.9581 233.02 32.9581C226.924 32.9581 221.285 32.0313 215.646 30.1198C212.903 29.1931 210.16 28.2663 207.416 27.2816C202.54 25.6019 197.663 23.9221 192.786 22.2423C187.909 20.5626 183.642 18.4194 180.442 15.8708L180.289 15.755C178.003 14.0173 175.717 12.2217 171.907 10.8895C167.03 9.09387 162.306 8.22503 157.124 8.16711H156.667C153.01 8.16711 149.962 8.80426 147.066 10.0786C145.694 10.7157 144.323 11.4108 142.951 12.3955C138.836 14.9441 134.112 17.4927 128.473 20.0992C125.578 21.3735 123.901 22.8216 123.139 24.3276C122.377 26.0073 122.834 27.745 124.663 29.7723C127.406 32.8422 133.045 34.9274 141.884 36.2017C144.78 36.6072 147.523 36.9547 150.266 37.2443C152.248 37.476 154.229 37.7077 156.21 37.9394C162.458 38.7503 167.335 40.4301 171.145 43.0945C172.212 43.7896 173.126 44.5426 174.041 45.2956C174.498 45.8169 175.26 46.3382 175.87 46.8595C178.308 48.6551 181.813 50.219 186.995 51.783C192.938 53.6365 197.206 55.1425 200.863 56.7064C204.826 58.4441 208.483 60.2976 212.293 62.4407C214.579 63.8309 216.713 64.4101 219.304 64.4101C221.285 64.4101 223.266 64.0626 225.857 63.5992C230.734 62.6724 234.544 61.0506 237.744 58.7337C241.097 56.3009 243.535 54.2157 245.364 52.2463C247.193 50.277 248.26 48.2497 248.564 46.1644C248.717 45.1798 248.717 44.1951 248.869 43.2104C248.869 42.3415 249.022 41.4727 249.174 40.6039C249.326 39.735 249.479 38.6924 250.241 37.7077C251.46 36.028 254.508 34.9854 259.08 34.7537C261.366 34.6378 263.5 34.522 265.481 34.522C270.662 34.522 275.082 34.9854 278.892 35.9121C283.312 36.9547 287.122 38.5186 290.17 40.488C294.132 43.0945 296.57 46.0486 297.18 49.1764L297.332 49.9294C297.637 51.6092 298.094 53.2889 299.618 54.9108C300.838 56.3009 302.666 57.8069 306.781 58.6758C308.153 58.9654 309.372 59.1391 310.591 59.255C311.048 59.3129 311.658 59.3129 312.115 59.3129C314.554 59.3129 316.535 58.7337 317.602 57.749C318.821 56.6485 319.278 55.49 319.735 54.3316L320.04 54.0419C321.107 51.8409 322.326 49.2923 325.526 46.9754C327.965 45.1798 330.556 43.6738 333.604 42.3995C336.652 41.1831 339.852 39.9667 343.052 38.8662C343.967 38.5766 344.881 38.229 345.643 37.9394C349.301 36.6072 352.806 35.1591 357.073 33.0739C361.95 30.6991 366.065 28.7876 370.789 27.0499C373.228 26.1811 375.818 25.1964 379.324 24.0959C379.476 24.0379 379.628 23.98 379.781 23.98C380.086 23.8642 380.238 23.8063 380.39 23.8063V34.6378C379.171 35.5067 377.19 36.1438 375.209 36.6651C371.094 37.8236 366.522 38.7503 362.255 39.5612C361.188 39.7929 359.969 39.9667 358.902 40.1984C354.33 41.0672 349.606 41.9361 345.186 43.0366C337.109 45.1218 332.08 47.7284 329.794 50.9141C329.032 52.0726 328.574 53.1152 328.574 54.1578V54.737C328.574 55.7796 328.574 56.8802 329.184 57.9228C330.251 60.1238 333.451 61.6877 338.633 62.5566C341.528 63.0779 344.729 63.3675 347.624 63.715C348.539 63.8309 349.453 63.8888 350.215 64.0047C354.787 64.526 360.883 65.279 366.674 66.4374C373.532 67.8855 377.495 70.1445 378.714 73.4461C379.476 75.6471 378.562 77.6744 375.818 79.528C374.294 80.6285 371.704 81.4394 367.894 82.0766C365.15 82.5399 362.255 82.8296 359.512 83.1192C358.75 83.1771 358.14 83.235 357.378 83.3509H357.226C355.092 83.5826 352.806 83.8142 350.672 84.1618C348.386 84.5672 346.405 85.2044 344.576 86.1891C344.272 86.3628 343.967 86.5366 343.51 86.6525H331.775C331.318 86.4787 331.318 86.247 331.165 85.9574V85.7836C330.86 84.6831 330.251 83.8142 329.489 83.0612C328.727 82.1924 327.203 81.6711 324.917 81.4394C322.326 81.1498 319.735 81.034 317.144 80.976C313.182 80.8023 309.067 80.6864 305.41 80.5706C304.038 80.5126 302.666 80.5126 301.447 80.5126C293.98 80.5126 288.341 81.2656 283.464 82.8296C280.873 83.6405 278.892 84.741 276.911 86.1891C276.606 86.4208 276.301 86.5945 275.844 86.7104H263.347C263.195 86.6525 263.195 86.5366 263.5 86.3049C265.024 84.7989 266.548 83.6984 268.681 82.8296C275.082 80.0493 282.092 78.3116 290.17 77.5007C291.998 77.3269 293.98 77.2111 296.57 77.2111C297.028 77.2111 297.485 77.2111 297.942 77.2111C298.856 77.2111 299.618 77.2111 300.533 77.2111C301.447 77.2111 302.209 77.2111 303.124 77.2111C304.8 77.2111 306.934 77.2111 309.067 77.0952C311.81 76.9214 314.858 76.6898 316.992 75.6471C317.754 75.2996 318.516 74.8362 318.821 74.3149C319.888 72.4614 321.259 67.7696 310.896 65.0473L309.22 64.5839C306.781 63.9467 304.19 63.3096 301.904 62.5566C295.808 60.6451 291.998 58.0386 290.627 54.9108C290.017 53.4627 289.865 51.9567 289.712 50.6245C289.865 48.713 289.56 46.6278 287.884 44.6585C285.902 42.3415 282.854 40.6039 278.74 39.4454C275.844 38.5766 272.796 38.1711 269.596 38.1711C268.529 38.1711 267.614 38.229 266.548 38.2869C262.585 38.6345 259.69 39.6192 258.013 41.241C256.642 42.5153 256.337 43.8475 256.184 44.8901C255.575 48.771 254.356 52.3043 252.679 55.7217C251.917 57.2277 251.612 58.7916 251.155 60.2976L251.003 60.9348C250.241 63.8888 247.955 66.2057 243.84 68.1172C242.468 68.7543 240.944 69.3336 239.42 69.8549C238.506 70.2024 237.592 70.5499 236.677 70.9554C233.477 72.2876 231.191 73.8515 229.972 75.7051C229.514 76.3422 229.21 76.9214 228.752 77.5586C228.143 78.4274 227.686 79.3542 226.924 80.281C225.857 81.8449 224.333 83.3509 222.961 84.7989C222.504 85.2623 222.047 85.7257 221.59 86.1891C221.437 86.3628 221.132 86.4787 220.828 86.5366H194.462V86.6525ZM194.462 86.8842C203.454 86.8842 212.293 86.8842 221.285 86.8842C221.894 86.7683 222.199 86.5945 222.504 86.3628C224.333 84.3935 226.466 82.482 227.838 80.3968C228.905 78.8908 229.819 77.3269 230.734 75.8209C231.953 74.0253 233.934 72.4614 237.287 71.1871C239.725 70.2024 242.164 69.3336 244.45 68.3489C249.022 66.2636 251.155 63.773 251.765 61.0506C252.222 59.3129 252.527 57.5752 253.289 55.8376C255.118 52.2463 256.184 48.5972 256.794 45.006C256.946 43.7896 257.404 42.5732 258.623 41.4148C260.147 39.9667 262.738 38.9241 266.7 38.5766C267.614 38.5186 268.681 38.4607 269.596 38.4607C272.796 38.4607 275.692 38.9241 278.435 39.6771C282.854 40.9514 285.445 42.747 287.274 44.7743C288.95 46.6278 289.255 48.5972 289.408 50.5666C289.56 52.0146 289.712 53.4627 290.322 54.9108C291.694 58.0965 295.504 60.7031 301.904 62.7304C304.8 63.6571 307.848 64.4101 310.896 65.221C319.126 67.4221 320.345 71.1292 318.516 74.257C318.211 74.7204 317.602 75.1258 316.84 75.4734C314.858 76.4581 312.115 76.6898 309.22 76.8635C307.238 76.9794 305.257 76.9794 303.276 76.9794C301.6 76.9794 299.771 76.9794 298.094 76.9794C297.637 76.9794 297.18 76.9794 296.723 76.9794C294.589 76.9794 292.303 77.0952 290.17 77.269C281.483 78.1378 274.32 80.0493 268.376 82.6558C265.938 83.6984 264.414 84.9148 263.195 86.247C262.89 86.5366 262.738 86.7683 263.347 87C267.614 87 271.882 87 276.149 87C276.911 86.8842 277.216 86.5945 277.52 86.3628C279.197 85.0885 281.178 83.988 283.921 83.0612C289.255 81.3815 295.199 80.8023 301.6 80.8023C302.819 80.8023 304.19 80.8023 305.41 80.8602C309.372 80.976 313.334 81.0919 317.144 81.2656C319.735 81.3815 322.326 81.4973 324.764 81.729C326.746 81.9607 328.117 82.4241 328.879 83.1771C329.641 84.0459 330.098 84.9727 330.403 85.8415C330.556 86.247 330.556 86.6525 331.318 86.9421C335.432 86.9421 339.547 86.9421 343.51 86.9421C344.119 86.7683 344.576 86.5366 344.881 86.3628C346.405 85.5519 348.234 84.8569 350.672 84.4514C352.806 84.1039 355.092 83.8722 357.378 83.6405C360.883 83.2929 364.541 82.9454 367.894 82.3662C371.246 81.7869 374.294 81.034 376.123 79.7017C378.866 77.7324 379.781 75.6471 379.019 73.4461C377.8 70.2603 373.837 67.8276 366.674 66.3216C361.798 65.1052 356.159 64.3522 350.52 63.715C346.558 63.2517 342.595 62.9041 338.938 62.267C333.908 61.3981 330.86 59.9501 329.794 57.749C329.184 56.5326 329.184 55.3162 329.184 54.0999C329.184 52.9993 329.641 51.9567 330.403 50.9141C332.842 47.4967 338.328 45.0639 345.643 43.2104C350.977 41.8202 356.768 40.8356 362.56 39.735C367.132 38.8662 371.551 37.9394 375.514 36.781C377.647 36.2017 379.628 35.5646 381 34.6378C381 30.9308 381 27.2816 381 23.5746C380.848 23.5166 380.543 23.5166 380.39 23.5166C379.781 23.5166 379.324 23.7483 378.866 23.9221C375.971 24.9068 373.075 25.8915 370.332 26.9341C365.303 28.7876 360.883 30.8728 356.616 33.016C353.111 34.7537 349.453 36.3755 345.338 37.8236C341.224 39.2716 336.956 40.7197 333.146 42.2836C329.794 43.6738 327.203 45.1798 324.917 46.8595C321.869 49.1185 320.497 51.5513 319.43 53.984C318.821 55.2004 318.364 56.4747 317.144 57.6332C316.23 58.5599 314.401 59.0233 312.268 59.0233C311.81 59.0233 311.353 59.0233 310.896 58.9654C309.524 58.8495 308.458 58.6758 307.238 58.3862C303.581 57.6332 301.752 56.243 300.38 54.737C298.704 52.9414 298.399 50.972 297.942 49.0606C297.332 45.8748 294.894 42.9787 290.779 40.3142C287.884 38.4028 284.074 36.781 279.197 35.6804C274.777 34.6378 270.205 34.2903 265.481 34.2903C263.347 34.2903 261.214 34.3482 258.928 34.522C254.508 34.7537 251.003 35.7383 249.631 37.6498C248.869 38.6345 248.564 39.6192 248.412 40.6039C248.107 42.4574 248.107 44.3109 247.802 46.1644C247.498 48.2497 246.431 50.277 244.602 52.1884C242.468 54.4474 239.878 56.5326 236.982 58.6178C234.239 60.6451 230.581 62.3828 225.4 63.4254C222.961 63.9467 220.98 64.2364 219.151 64.2364C216.865 64.2364 214.884 63.715 212.598 62.3828C209.093 60.3555 205.283 58.4441 201.168 56.5905C196.901 54.737 192.176 53.1731 187.3 51.6092C182.88 50.277 179.07 48.771 176.327 46.8016C174.65 45.5273 173.279 44.253 171.45 42.9787C167.945 40.488 163.068 38.6345 156.21 37.7077C151.486 37.1285 146.761 36.6651 142.037 35.97C134.264 34.8116 128.016 32.9581 125.12 29.6565C123.596 27.9188 122.682 26.1811 123.596 24.3276C124.511 22.7636 126.34 21.4314 128.93 20.215C134.264 17.7244 139.141 15.1758 143.561 12.3955C144.78 11.5846 145.999 10.8316 147.676 10.1365C150.114 9.03595 153.01 8.34088 156.82 8.34088C156.972 8.34088 157.124 8.34088 157.277 8.34088C162.916 8.3988 167.64 9.49933 171.602 11.0053C175.412 12.3955 177.698 14.1911 179.984 15.9288C183.185 18.3615 187.3 20.5626 192.481 22.3582C200.101 24.9647 207.721 27.5712 215.341 30.1778C220.523 31.9154 226.314 33.0739 233.172 33.0739C233.629 33.0739 234.086 33.0739 234.696 33.0739C238.506 33.016 241.859 32.6105 244.602 31.3941C246.278 30.6411 247.498 29.8302 248.717 28.9614C251.46 26.8182 253.898 24.6172 257.404 22.5899C259.842 21.1418 262.738 19.8675 266.7 18.9987C269.443 18.3615 272.339 17.9561 275.387 17.9561C277.216 17.9561 279.044 18.0719 280.873 18.4194C282.702 18.7091 284.378 19.0566 286.055 19.4041C289.56 20.215 293.065 21.1418 296.875 21.8369C300.838 22.5899 304.952 22.9953 309.067 22.9953C310.896 22.9953 312.572 22.9374 314.401 22.7636C322.478 22.1265 328.117 19.8096 329.489 16.508C330.098 15.1178 329.946 13.7277 329.489 12.3376C328.727 9.49933 324.002 7.52996 317.449 7.00866C312.115 6.54527 306.781 6.66112 301.447 6.48735C299.009 6.42943 296.723 6.48735 294.284 6.3715C288.341 6.02397 283.159 5.03928 279.502 3.01198C278.13 2.25899 277.063 1.44807 276.149 0.579228C275.844 0.347537 275.387 0.173768 274.777 0C269.291 0 263.804 0 258.318 0C258.013 0.115846 257.708 0.289614 257.708 0.463382C257.708 0.926764 257.404 1.44807 257.404 1.91145C257.404 3.88083 257.708 5.8502 258.623 7.81957C259.232 9.09387 258.47 10.2523 256.946 11.4108C254.965 12.8009 253.289 14.1911 251.765 15.6971C249.326 17.9561 247.193 20.3309 244.297 22.532C242.621 23.8642 240.64 25.0806 237.896 26.1811C235.306 27.2237 232.258 27.8029 228.752 27.8029C228.6 27.8029 228.295 27.8029 228.143 27.8029C224.942 27.745 222.047 27.2816 219.151 26.6445C213.97 25.3702 209.245 23.9221 204.368 22.474C200.558 21.3735 197.053 20.0992 194.005 18.6511C190.5 16.9714 188.214 15.0599 186.08 13.0905C182.88 9.84687 178.003 7.06658 172.212 4.5759C169.621 3.41744 167.183 2.20107 166.268 0.63715C166.116 0.347537 165.659 0.173768 165.202 0C158.953 0 152.705 0 146.456 0C145.999 0.173768 145.542 0.347537 145.237 0.579228C143.713 2.08522 141.122 3.24368 137.922 4.22836C134.112 5.32889 130.302 6.42943 126.949 7.70373C122.377 9.44141 118.262 11.4108 114.605 13.496C111.557 15.2337 107.899 16.7976 103.327 18.0719C101.041 18.767 98.9076 19.52 97.0788 20.273C92.202 22.2423 87.9348 24.3855 83.3628 26.4128C80.6196 27.745 78.0288 29.0772 76.2 30.5832C72.2376 33.6531 71.1708 37.0126 70.7136 40.4301C70.4088 42.747 71.3232 45.006 72.6948 47.265C73.914 48.9447 74.8284 50.6245 74.676 52.4201C74.5236 55.0846 72.6948 57.6332 69.0372 59.8921C65.3796 62.1511 60.198 63.0779 53.9496 63.0779C53.6448 63.0779 53.34 63.0779 52.8828 63.0779C48.3108 63.02 43.8912 62.4987 39.7764 61.6298C35.9664 60.8768 32.6136 59.8921 29.1084 58.9075C21.1836 56.5326 12.192 55.1425 2.5908 54.4474C2.1336 54.4474 1.6764 54.3316 1.2192 54.3316C0.762 54.3316 0.3048 54.3895 0 54.5053C0 56.5905 0 58.6758 0 60.761C0.3048 60.8768 0.6096 60.9927 1.2192 60.9927C1.2192 60.9927 1.2192 60.9927 1.3716 60.9927C2.7432 60.9927 3.9624 61.1085 5.334 61.1085C8.5344 61.1664 11.5824 61.3402 14.6304 61.6877C19.6596 62.2091 24.2316 63.1937 28.956 64.0047C36.576 65.3369 44.3484 66.1478 52.578 66.1478C54.7116 66.1478 56.8452 66.0899 59.1312 65.974C66.1416 65.6265 71.3232 64.1784 74.9808 61.8036C78.486 59.4867 80.4672 56.9381 81.8388 54.3316C82.7532 52.6518 83.058 50.9141 82.4484 49.1764C81.8388 47.7284 80.9244 46.2803 80.01 44.8322C78.6384 42.5153 78.1812 40.2563 78.9432 37.8815C80.4672 33.3056 86.2584 29.8881 96.012 27.6871C98.4504 27.1658 100.736 26.8762 102.87 26.8762C105.918 26.8762 108.661 27.4554 111.252 28.8455C113.843 30.1198 115.824 31.51 117.958 32.9001C122.377 35.5646 128.168 37.476 135.331 38.8083C140.056 39.6771 144.932 40.3142 149.657 41.0672C157.277 42.3415 162.306 44.5426 163.678 47.9021C164.287 49.524 164.592 51.0879 164.44 52.7097C164.44 53.3469 164.592 53.9261 165.049 54.5632C165.811 55.7796 167.792 56.5326 170.993 56.7064C172.364 56.7643 173.584 56.8222 174.803 56.8222C175.26 56.8222 175.717 56.8222 176.174 56.8222C176.327 56.8222 176.479 56.8222 176.632 56.8222C187.3 56.8222 195.224 60.7031 193.548 64.9893C192.481 67.5379 190.043 69.8549 187.604 72.2297C185.623 74.0253 183.49 75.8209 181.966 77.7324C180.442 79.6438 180.442 81.4973 183.49 83.235C185.014 84.1039 186.995 84.7989 188.976 85.4361C190.805 85.8415 192.176 86.5945 194.462 86.8842Z" fill="white"/>
<path d="M1.3716 34.2903C1.0668 34.2903 0.762 34.2903 0.6096 34.1744V30.6411C0.9144 30.5832 1.0668 30.5253 1.524 30.5253C1.6764 30.5253 1.9812 30.5253 2.1336 30.5253C2.286 30.5253 2.4384 30.5253 2.5908 30.5253H3.5052C5.1816 30.5253 6.7056 30.5832 8.382 30.5832C11.1252 30.5832 14.9352 30.5253 18.5928 30.004C25.4508 29.0772 30.6324 27.3395 34.4424 24.6172C37.0332 22.7636 38.5572 20.5626 39.0144 17.8402C39.624 16.2184 39.4716 14.5965 39.1668 12.9168C39.0144 11.1212 38.862 9.49933 37.7952 7.81957C36.8808 6.3715 34.5948 5.38682 31.0896 4.86551C26.9748 4.34421 22.5552 4.17044 18.7452 3.99667C15.8496 3.93875 12.954 3.88083 10.2108 3.88083H7.9248H5.7912C4.572 3.88083 3.5052 3.88083 2.286 3.93875C1.9812 3.93875 1.8288 3.93875 1.524 3.93875C1.0668 3.93875 0.9144 3.88083 0.6096 3.8229V2.89614C0.6096 2.08522 0.6096 1.21638 0.6096 0.405459C0.6096 0.289614 0.6096 0.231691 0.6096 0.231691C0.6096 0.231691 0.762 0.231691 1.0668 0.231691C16.6116 0.231691 32.1564 0.231691 47.5488 0.231691C49.3776 0.63715 51.2064 0.810919 53.1876 0.810919C54.2544 0.810919 55.3212 0.752996 56.388 0.63715C56.9976 0.579228 57.6072 0.521305 58.2168 0.463382C59.1312 0.405459 60.0456 0.347537 60.96 0.231691H75.2856C75.438 0.347537 75.2856 0.463382 74.8284 0.695073C72.5424 1.85353 69.7992 2.83822 66.9036 3.59121C65.8368 3.8229 64.9224 4.11252 63.8556 4.34421C61.2648 4.98136 58.674 5.61851 56.2356 6.3715C52.8828 7.41411 50.5968 8.86218 48.9204 11.0053C47.5488 12.8009 47.0916 14.6545 46.7868 16.508V16.6818C46.0248 19.462 44.8056 22.474 40.9956 25.2543C39.7764 26.1811 38.1 27.0499 36.4236 27.8608C29.8704 30.9887 21.336 32.9581 10.8204 33.769C8.2296 33.9427 5.334 34.1165 1.6764 34.2903C1.524 34.2903 1.524 34.2903 1.3716 34.2903ZM1.3716 34.522C1.524 34.522 1.6764 34.522 1.8288 34.522C4.8768 34.3482 7.9248 34.1744 10.9728 34.0007C21.336 33.1897 30.0228 31.2783 36.8808 27.9767C38.5572 27.1658 40.2336 26.239 41.4528 25.3122C45.2628 22.6478 46.6344 19.6937 47.244 16.6818C47.7012 14.7703 48.1584 12.9168 49.53 11.0632C50.9016 9.32556 52.8828 7.70373 56.5404 6.54527C59.8932 5.50266 63.5508 4.69174 67.056 3.76498C70.2564 2.95406 72.8472 1.96937 75.1332 0.810919C75.7428 0.579228 76.3524 0.347537 75.5904 0C70.7136 0 65.6844 0 60.8076 0C59.2836 0.231691 57.7596 0.231691 56.2356 0.405459C55.3212 0.521305 54.2544 0.579228 53.1876 0.579228C51.3588 0.579228 49.53 0.405459 47.7012 0C32.1564 0 16.6116 0 1.0668 0C0.1524 0 0 0.0579228 0 0.405459C0 1.56391 0 2.78029 0 3.93875C0.4572 4.17044 0.9144 4.22836 1.524 4.22836C1.8288 4.22836 2.1336 4.22836 2.286 4.22836C3.5052 4.17044 4.572 4.17044 5.7912 4.17044C7.3152 4.17044 8.6868 4.17044 10.2108 4.17044C13.1064 4.17044 15.8496 4.17044 18.7452 4.28628C22.86 4.46005 26.9748 4.63382 30.9372 5.15513C34.29 5.61851 36.4236 6.54527 37.1856 7.93542C38.2524 9.61518 38.4048 11.2949 38.5572 12.9747C38.862 14.5965 39.0144 16.2184 38.7096 17.8981C38.2524 20.273 37.0332 22.532 34.1376 24.6172C30.6324 27.1079 25.6032 28.9035 18.5928 29.8302C15.24 30.2936 11.8872 30.4095 8.5344 30.4095C6.5532 30.4095 4.7244 30.3515 2.7432 30.3515C2.286 30.3515 1.9812 30.2936 1.524 30.2936C0.9144 30.2936 0.4572 30.3515 0 30.5253C0 31.7996 0 33.016 0 34.2903C0.4572 34.464 0.9144 34.522 1.3716 34.522Z" fill="white"/>
<path d="M81.5342 86.6527C81.9914 85.2046 83.0582 83.7566 85.0394 81.9609C87.3254 79.8757 90.3734 77.9064 93.269 75.9949C94.1834 75.4157 95.0978 74.8364 96.0122 74.2572L96.317 74.0255C98.7554 72.4037 101.346 70.7239 104.242 69.16C110.947 65.7426 118.567 63.889 127.559 63.3677C128.931 63.3098 130.15 63.2519 131.369 63.2519C136.551 63.2519 140.818 63.947 144.171 65.3371C146.304 66.206 147.371 67.3644 148.285 68.4649C150.114 70.4343 151.029 72.4616 152.095 74.4889L152.4 74.9523C153.924 78.0222 156.21 80.7446 159.411 83.2932C160.782 84.3937 161.697 85.4942 162.306 86.6527H149.2C148.895 86.5368 148.59 86.3631 148.59 86.1893L148.438 85.8418C147.676 83.6986 146.761 81.4976 146.457 79.3544L146.304 78.5435C145.999 77.0954 145.847 75.6474 145.237 74.1414C144.475 72.2878 143.256 70.1447 139.751 68.3491C137.008 66.959 133.35 66.148 128.778 66.0322C128.321 66.0322 127.864 66.0322 127.407 66.0322C122.377 66.0322 117.653 66.8431 112.929 68.5229C108.966 69.913 106.223 71.7086 103.937 73.4463C101.803 74.9523 99.6698 76.4004 97.5362 77.8484C96.1646 78.7752 94.9454 79.702 93.5738 80.5708C90.6782 82.5981 89.0018 84.2199 88.0874 85.8997C87.935 86.2472 87.7826 86.421 87.3254 86.5368H81.5342V86.6527ZM80.9246 86.8844C83.0582 86.8844 85.1918 86.8844 87.3254 86.8844C88.2398 86.7106 88.3922 86.421 88.5446 86.0735C89.6114 84.2199 91.5926 82.4823 93.8786 80.8604C97.3838 78.4277 100.889 76.1107 104.242 73.678C106.68 71.8824 109.271 70.1447 113.233 68.8125C117.348 67.3065 121.92 66.3218 127.407 66.3218C127.864 66.3218 128.321 66.3218 128.778 66.3218C133.045 66.4376 136.703 67.1327 139.446 68.5229C142.799 70.2026 144.018 72.172 144.78 74.1993C145.39 75.8791 145.695 77.6167 145.999 79.2965C146.457 81.6134 147.219 83.8724 148.133 86.1893C148.285 86.4789 148.59 86.6527 149.047 86.8265C153.772 86.8265 158.496 86.8265 163.221 86.8265C162.611 85.5522 161.544 84.3358 160.02 83.1773C156.667 80.5708 154.534 77.7905 153.01 74.8944C151.943 72.6933 150.876 70.4922 149.047 68.407C147.981 67.2486 146.914 66.0901 144.78 65.2213C140.97 63.6574 136.398 63.0781 131.521 63.0781C130.302 63.0781 128.931 63.136 127.559 63.194C117.805 63.7153 110.033 65.9163 103.937 69.1021C100.737 70.666 98.1458 72.4037 95.555 74.1414C91.745 76.69 87.4778 79.1227 84.5822 81.8451C82.7534 83.4669 81.3818 85.0888 80.9246 86.8844Z" fill="white"/>
<path d="M24.384 86.6519C23.9268 86.5361 23.4696 86.4202 23.0124 86.2465C20.574 85.3197 17.6784 84.7984 13.8684 84.6826C12.954 84.6826 12.0396 84.6246 11.1252 84.6246C9.2964 84.6246 7.4676 84.6826 5.7912 84.7405L4.2672 84.7984C3.9624 84.7984 3.6576 84.7984 3.3528 84.8563C2.8956 84.8563 2.5908 84.9142 2.1336 84.9142C1.524 84.9142 0.9144 84.8563 0.6096 84.7405V76.9788L2.286 76.863L9.144 76.3996C10.3632 76.3417 11.7348 76.2838 12.954 76.2838C17.3736 76.2838 21.6408 76.8051 25.6032 77.9056C32.1564 79.6433 37.0332 81.8443 40.0812 84.5088C40.8432 85.2039 41.4528 85.9569 42.0624 86.7099H24.384V86.6519ZM24.2316 86.8836C30.48 86.8836 36.7284 86.8836 42.9768 86.8836C42.3672 86.0148 41.7576 85.1459 40.8432 84.335C37.4904 81.4968 32.4612 79.2957 26.2128 77.616C22.098 76.5154 17.8308 75.9941 13.1064 75.9941C11.8872 75.9941 10.5156 76.0521 9.144 76.11C6.096 76.3417 3.048 76.5154 0 76.6892C0 79.3537 0 82.0181 0 84.7405C0.6096 84.9722 1.3716 85.0301 2.1336 85.0301C2.8956 85.0301 3.5052 84.9722 4.2672 84.9722C6.5532 84.9142 8.8392 84.8563 11.1252 84.8563C12.0396 84.8563 12.954 84.8563 13.8684 84.9142C17.2212 85.0301 20.2692 85.4356 22.5552 86.4202C23.1648 86.594 23.622 86.7678 24.2316 86.8836Z" fill="white"/>
<path d="M380.391 14.8862C379.629 14.4807 378.867 14.0752 378.257 13.6698C377.8 13.3802 377.343 13.0905 376.886 12.8589L375.819 12.3375C374.142 11.4108 372.314 10.4261 370.18 9.55726C366.827 8.22503 362.408 7.18242 357.378 6.48735C355.245 6.19774 353.111 5.90812 350.978 5.67643C348.996 5.44474 347.015 5.15513 345.034 4.92344C339.852 4.22836 336.5 2.43276 336.195 0.231691H348.539C349.454 0.405459 350.216 0.63715 350.978 0.926764C353.264 1.73768 355.854 2.14314 358.75 2.5486C359.817 2.72237 361.036 2.83822 362.103 3.01198C365.76 3.47537 369.418 3.99667 372.771 4.74967C375.362 5.32889 377.648 6.08189 379.629 6.71904C379.934 6.83489 380.086 6.95073 380.238 7.1245C380.391 7.24035 380.391 7.29827 380.543 7.41411V14.8862H380.391ZM381 15.5233C381 12.8009 381 10.0786 381 7.35619C380.543 7.06658 380.391 6.77696 379.781 6.54527C377.648 5.79228 375.362 5.0972 372.923 4.5759C368.504 3.53329 363.627 3.01198 358.75 2.37483C356.007 1.96937 353.264 1.62184 351.13 0.810919C350.216 0.521305 349.454 0.231691 348.387 0.0579228C343.967 0 339.548 0 335.28 0C335.433 2.37483 338.938 4.34421 344.577 5.0972C348.692 5.67643 352.959 6.13981 357.074 6.66112C361.798 7.29827 366.065 8.28296 369.723 9.6731C372.314 10.6578 374.295 11.8162 376.276 12.9168C377.8 13.8435 379.172 14.7703 381 15.5233Z" fill="white"/>
<path d="M222.047 86.6526C222.504 86.1313 223.114 85.552 223.571 85.0307C225.552 82.8876 227.686 80.6865 229.058 78.3696C229.82 76.9795 230.734 75.5314 232.106 74.1992C233.02 73.2145 234.544 72.3456 236.373 71.5926C237.744 71.0713 239.116 70.4921 240.488 69.9708C241.25 69.6812 242.164 69.3337 242.926 69.044C247.955 67.0747 250.851 64.6998 251.46 61.9195C252.375 58.3283 253.899 54.6213 255.27 51.4934C255.88 50.0454 256.185 48.5394 256.49 47.1492L256.642 46.2225C256.947 44.7744 257.252 43.0946 258.623 41.5886C260.3 39.6772 264.719 38.4029 269.596 38.4029C270.206 38.4029 270.815 38.4029 271.425 38.4608C277.368 38.8663 281.788 40.2564 285.446 42.8629C287.884 44.5427 289.103 46.5121 289.408 49.0028C289.408 49.5241 289.56 50.1033 289.56 50.6246C289.713 52.1306 289.865 53.7524 290.627 55.2584C292.456 58.6179 296.876 61.3403 303.886 63.2518C304.8 63.4835 305.867 63.7731 306.782 64.0048C308.61 64.4681 310.287 64.9894 312.116 65.4528C316.535 66.7851 318.974 68.5227 319.278 70.7238C319.583 71.9402 319.431 72.9249 318.974 73.7937C318.364 75.1838 316.23 76.1106 312.725 76.574C310.896 76.8057 308.763 76.9215 306.02 76.9215C305.41 76.9215 304.953 76.9215 304.343 76.9215C303.581 76.9215 302.667 76.9215 301.905 76.9215C301.143 76.9215 300.228 76.9215 299.466 76.9215C297.942 76.9215 296.114 76.9215 294.132 77.0374C289.103 77.2111 284.074 77.9641 278.892 79.2384C273.558 80.5707 269.596 81.9608 266.853 83.5827C265.024 84.6253 263.805 85.6679 263.043 86.6526H248.412C248.108 86.5367 248.108 86.4209 248.108 86.1892V86.0733C248.108 85.7258 248.108 85.4362 248.108 85.0886C248.108 84.4515 248.108 83.8143 247.803 83.1772V83.0613C247.65 82.598 247.346 82.0767 245.822 81.845C245.517 81.787 245.212 81.787 244.907 81.787C243.688 81.787 242.774 82.1346 242.012 82.4242C239.421 83.4668 237.592 84.5673 236.373 85.7837L236.22 85.9575C235.916 86.2471 235.611 86.5367 235.154 86.6526H222.047ZM221.133 86.8843C225.705 86.8843 230.277 86.8843 234.849 86.8843C235.916 86.6526 236.22 86.2471 236.525 85.8416C237.744 84.6253 239.726 83.5247 242.164 82.598C242.774 82.3084 243.688 82.0187 244.602 82.0187C244.755 82.0187 245.06 82.0187 245.364 82.0767C246.736 82.2504 246.736 82.7717 247.041 83.2351C247.498 84.2198 247.193 85.1466 247.346 86.1313C247.346 86.4209 247.346 86.7684 247.955 86.9422C253.137 86.9422 258.166 86.9422 263.348 86.9422C264.11 85.7837 265.481 84.7411 267.158 83.7564C270.206 81.9608 274.473 80.6286 279.045 79.4701C283.617 78.3117 288.494 77.5008 293.98 77.2691C295.809 77.2111 297.485 77.2111 299.314 77.2111C300.99 77.2111 302.514 77.2111 304.191 77.2111C304.8 77.2111 305.258 77.2111 305.867 77.2111C308.153 77.2111 310.592 77.0953 312.725 76.8636C316.383 76.4002 318.669 75.4735 319.431 73.9095C319.888 72.8669 319.888 71.8243 319.736 70.7817C319.278 68.4648 316.84 66.6692 312.268 65.337C309.677 64.5261 306.782 63.831 304.038 63.078C297.028 61.1665 292.761 58.56 291.084 55.2005C290.018 53.1153 290.17 51.0301 289.865 48.9448C289.56 46.6859 288.494 44.6006 285.75 42.6892C282.55 40.3723 278.13 38.6346 271.272 38.1712C270.663 38.1133 269.901 38.1133 269.291 38.1133C264.11 38.1133 259.385 39.4455 257.709 41.4149C256.49 42.9209 256.032 44.5427 255.728 46.1066C255.423 47.8443 255.118 49.6399 254.356 51.3776C252.832 54.853 251.46 58.3283 250.546 61.8037C249.936 64.5261 247.041 66.9009 242.164 68.7544C240.03 69.6233 237.744 70.4342 235.763 71.303C233.782 72.056 232.41 72.9828 231.344 74.0254C229.972 75.4155 229.21 76.8057 228.296 78.2538C226.772 81.2657 223.724 84.046 221.133 86.8843Z" fill="white"/>
<path d="M308.915 19.6933V19.4616C308.305 19.4616 307.695 19.4616 307.086 19.4037C302.209 19.172 297.942 18.1873 293.827 16.3338C292.913 15.8704 291.998 15.407 290.931 14.8278C289.865 14.1906 289.56 13.4956 289.865 12.6267C290.169 11.9896 291.541 11.642 293.065 11.2945C296.265 10.6574 300.075 10.3098 304.8 10.2519C308.153 10.3098 311.81 10.4836 314.858 11.3524C320.649 13.0901 320.497 16.1021 318.059 17.5502C315.925 18.8245 312.877 19.4616 308.915 19.4616V19.6933ZM308.915 19.6933C312.877 19.6933 316.077 19.1141 318.516 17.7239C321.107 16.2179 321.259 13.0322 315.163 11.2366C312.115 10.3098 308.457 10.136 304.8 10.0781C300.685 10.136 296.57 10.3677 292.76 11.1207C291.236 11.4683 289.56 11.8158 289.255 12.6267C288.95 13.4376 289.255 14.2486 290.474 15.0016C291.389 15.5229 292.303 16.0442 293.37 16.5076C297.027 18.1873 301.295 19.4037 306.933 19.6933C307.695 19.6933 308.305 19.6933 308.915 19.6933Z" fill="white"/>
<path d="M310.438 46.2221C309.676 46.2221 308.914 46.0483 308 45.7008C306.019 44.8898 304.8 43.9631 303.276 42.9784L302.666 42.515C299.313 40.1981 296.418 38.3446 293.37 36.6069C288.036 33.5949 281.635 31.6255 273.862 30.5829C271.729 30.2933 269.748 29.8878 268.071 29.4244C265.785 28.7873 264.718 27.7447 265.48 26.7021C266.852 24.6748 272.186 22.995 277.368 22.995C280.568 23.0529 283.768 23.4584 286.512 23.9797C290.626 24.6748 295.046 25.4278 299.618 25.6595C302.361 25.7753 304.8 25.8332 307.238 25.8332C313.639 25.8332 319.278 25.3699 324.459 24.4431C331.317 23.2267 335.584 21.0256 337.87 17.6661C338.175 17.2027 338.48 16.7394 338.785 16.2181C339.394 15.2913 340.004 14.3645 340.614 13.4378C342.595 11.005 347.472 10.5996 350.215 10.5996C351.282 10.5996 352.348 10.6575 353.415 10.7733C361.188 11.5263 366.826 14.1328 367.893 17.5503C368.503 19.1721 367.284 20.6781 364.083 22.4737C361.035 24.1535 357.682 25.8332 354.482 27.4551C352.196 28.6135 349.758 29.772 347.472 30.9884C343.204 33.1894 338.328 35.1588 333.603 37.0703C332.384 37.5336 331.165 38.0549 329.946 38.5762C325.831 40.256 322.173 42.0516 318.668 43.7314L317.906 44.0789C316.382 44.774 314.858 45.527 312.724 45.9324C311.658 46.1062 311.048 46.2221 310.438 46.2221ZM310.438 46.4537C311.2 46.4537 311.81 46.3379 312.724 46.2221C315.315 45.7008 316.992 44.774 318.82 43.9051C322.478 42.1675 326.136 40.4298 330.098 38.75C336.194 36.3173 342.442 33.9424 347.776 31.1621C353.263 28.266 359.206 25.6015 364.388 22.7054C366.979 21.1994 368.96 19.5776 368.35 17.6082C367.284 14.3645 362.102 11.4105 353.415 10.5996C352.348 10.4837 351.129 10.4258 350.062 10.4258C345.643 10.4258 341.68 11.2946 340.004 13.3798C338.937 14.77 338.175 16.1601 337.261 17.6082C335.28 20.6202 331.317 22.9371 324.154 24.2114C318.668 25.1961 313.029 25.6015 307.086 25.6015C304.495 25.6015 302.056 25.5436 299.466 25.4278C294.894 25.1961 290.626 24.501 286.512 23.748C283.464 23.2267 280.416 22.7633 277.063 22.7633C271.576 22.7633 266.09 24.501 264.718 26.6442C263.956 27.8026 265.023 28.9031 267.462 29.5982C269.29 30.1195 271.424 30.525 273.405 30.7567C281.482 31.8572 287.731 33.9424 292.608 36.7227C295.96 38.6342 299.008 40.6035 301.904 42.6308C303.58 43.7314 304.952 44.8898 307.238 45.8166C308.61 46.28 309.524 46.4537 310.438 46.4537Z" fill="white"/>
<path d="M223.113 21.8369C222.809 21.8369 222.504 21.8369 222.351 21.8369C215.646 21.5473 209.55 20.4467 203.606 18.5353C196.748 16.2763 193.853 13.0905 191.719 9.96272L190.652 8.45672C188.823 5.79228 186.995 3.01198 185.775 0.289614H239.115C238.506 0.868841 237.744 1.33222 236.829 1.85353C236.525 2.0273 236.22 2.20107 236.067 2.31691C233.172 4.05459 231.343 6.13981 230.429 8.68841C229.819 10.0786 229.362 11.5846 229.514 13.1485C229.514 13.9015 229.819 14.6545 229.971 15.4075C230.124 16.0446 230.276 16.6818 230.276 17.3189C230.429 18.8249 230.429 20.0992 227.533 21.1418C226.314 21.6052 224.79 21.8369 223.113 21.8369ZM223.113 22.0686C224.79 22.0686 226.466 21.8369 227.838 21.3156C230.886 20.215 230.886 18.767 230.733 17.3189C230.581 15.9288 230.124 14.5386 229.971 13.1485C229.819 11.6425 230.276 10.1365 230.886 8.63049C231.648 6.3715 233.324 4.28628 236.372 2.37483C237.744 1.62184 239.115 0.926764 239.877 0C221.589 0 203.301 0 185.013 0C185.013 0.0579228 185.166 0.173768 185.166 0.231691C186.69 3.53329 188.976 6.71904 191.109 9.96272C193.395 13.2643 196.291 16.3921 203.149 18.6511C208.788 20.5047 215.036 21.721 222.199 22.0107C222.656 22.0686 222.961 22.0686 223.113 22.0686Z" fill="white"/>
<path d="M362.712 61.2242C356.311 61.2242 350.52 60.7029 345.033 59.6603C339.242 58.5019 336.042 56.0112 336.651 53.115C337.566 49.4659 345.795 46.6277 353.111 45.8168C356.311 45.4692 359.664 45.2955 363.169 45.2955C366.979 45.2955 371.094 45.5272 375.513 45.9326C377.037 46.1064 378.714 46.2222 380.238 46.396V59.8341C379.019 59.9499 377.952 60.1237 376.733 60.2975C374.447 60.5871 372.161 60.9346 369.875 61.0505C367.589 61.1663 365.15 61.2242 362.712 61.2242ZM362.712 61.4559C365.15 61.4559 367.589 61.398 370.027 61.2242C373.837 60.9925 377.19 60.3554 380.847 59.9499C380.847 55.374 380.847 50.7402 380.847 46.1643C379.171 45.9905 377.342 45.8168 375.666 45.643C371.551 45.2376 367.284 45.0059 363.169 45.0059C359.816 45.0059 356.311 45.1796 352.958 45.5272C344.729 46.396 336.956 49.408 336.042 52.9992C335.432 55.8374 338.328 58.5598 344.729 59.7762C350.672 60.9925 356.616 61.4559 362.712 61.4559Z" fill="white"/>
<path d="M11.8872 27.3989C9.4488 27.3989 6.858 27.2251 5.0292 27.1093C3.5052 26.9934 2.1336 26.9355 0.762 26.8197V22.823C0.9144 22.7651 0.9144 22.7651 1.0668 22.7651C1.2192 22.7651 1.524 22.7651 1.6764 22.823H1.8288C4.572 23.2284 7.1628 23.5181 9.906 23.6339C10.668 23.6918 11.43 23.7497 12.192 23.7497C12.8016 23.7497 13.4112 23.7497 14.0208 23.6918C19.2024 23.3443 22.7076 21.7224 22.86 19.5793C23.1648 16.1039 17.8308 13.4395 9.144 12.8603C7.4676 12.7444 5.9436 12.7444 4.2672 12.7444H3.81H3.5052C3.048 12.7444 2.5908 12.7444 2.1336 12.7444H1.8288C1.2192 12.7444 0.9144 12.7444 0.6096 12.6286V8.16852H1.2192C7.0104 8.16852 11.8872 8.22644 16.764 8.68982C23.7744 9.3849 28.194 11.1805 30.1752 14.1346C32.004 16.9149 32.1564 19.2318 30.6324 21.3749C28.194 24.7924 23.0124 26.7617 15.24 27.283C14.1732 27.3989 13.1064 27.3989 11.8872 27.3989ZM11.8872 27.6306C13.1064 27.6306 14.1732 27.5726 15.3924 27.5147C23.9268 26.9355 28.956 24.6765 31.242 21.4328C32.9184 19.0001 32.4612 16.5094 30.7848 14.0766C28.8036 11.1805 24.2316 9.21113 16.9164 8.45813C11.7348 7.93683 6.5532 7.87891 1.2192 7.87891C0.762 7.87891 0.4572 7.87891 0 7.87891C0 9.44282 0 11.0647 0 12.6286C0.6096 12.9182 1.2192 12.9182 1.9812 12.9182C2.4384 12.9182 2.8956 12.9182 3.3528 12.9182C3.6576 12.9182 3.81 12.9182 4.1148 12.9182C5.6388 12.9182 7.3152 12.9182 8.8392 13.034C17.0688 13.6133 22.4028 16.1619 22.098 19.5214C22.098 21.6066 18.7452 23.1126 13.8684 23.4601C13.2588 23.4601 12.6492 23.5181 12.192 23.5181C11.43 23.5181 10.668 23.5181 9.906 23.4601C7.1628 23.2864 4.572 22.9967 1.9812 22.6492C1.6764 22.5913 1.2192 22.5913 0.9144 22.5913C0.6096 22.5913 0.3048 22.5913 0 22.7651C0 24.2131 0 25.6033 0 27.0513C1.6764 27.1093 3.2004 27.2251 4.8768 27.341C7.1628 27.5147 9.6012 27.6306 11.8872 27.6306Z" fill="white"/>
<path d="M262.28 75.9358V75.7041C261.976 75.7041 261.671 75.7041 261.518 75.7041C259.08 75.6462 258.47 75.009 258.47 74.4298C258.318 73.503 258.928 72.6921 259.537 71.7653C259.69 71.4757 259.994 71.1861 260.147 70.9544C260.452 70.3752 260.909 69.796 261.214 69.2747C261.976 68.1741 262.738 67.0157 263.195 65.8572C263.804 64.2354 264.262 62.9032 264.262 61.6289V60.3546C264.262 58.1535 264.262 55.9524 264.566 53.7514C264.719 52.7667 264.719 51.8399 264.719 50.8552C264.719 49.9864 264.719 49.1175 264.871 48.2487V48.017C265.024 46.9165 265.176 45.758 266.243 44.6575C267.31 43.557 269.291 42.9198 271.577 42.9198C272.644 42.9198 273.863 43.0936 274.93 43.3832C276.454 43.7886 277.673 44.31 278.587 45.0629C280.264 46.3372 280.568 47.6695 280.721 48.8279C280.721 49.3492 280.721 49.8705 280.721 50.5656C280.721 50.9131 280.721 51.3186 280.721 51.7241C280.416 54.1568 281.178 56.3 282.702 58.2693C284.683 60.6442 288.036 62.9611 292.913 65.3359C294.742 66.2048 296.57 67.0736 298.399 68.0004L299.009 68.29C299.618 68.5796 300.076 68.9271 300.685 69.3905C301.904 70.491 301.447 71.0123 298.704 71.6495C297.637 71.8812 296.418 71.997 295.351 72.055C288.493 72.6342 281.788 73.6189 276.149 74.4877C271.12 75.2407 266.852 75.8199 262.28 75.8199V75.9358ZM262.28 75.9358C267.31 75.9358 271.882 75.2407 276.454 74.5456C282.702 73.5609 289.103 72.6921 295.656 72.1129C296.875 71.997 298.094 71.8812 299.161 71.6495C302.362 70.8965 302.666 70.2593 301.447 69.1009C300.99 68.6954 300.38 68.29 299.771 67.9424C297.79 66.9577 295.656 65.9731 293.675 64.9884C289.408 62.9032 285.75 60.6442 283.616 58.0376C281.788 55.8366 281.483 53.5197 281.635 51.5503C281.635 50.3339 281.788 49.4651 281.635 48.6542C281.483 47.3219 281.026 45.9897 279.349 44.7733C278.435 44.0783 277.063 43.4411 275.387 43.0356C274.168 42.746 272.948 42.5723 271.729 42.5723C269.291 42.5723 267.005 43.2094 265.786 44.4837C264.566 45.6422 264.566 46.9165 264.414 48.1329C264.109 49.9864 264.414 51.782 264.109 53.6355C263.652 56.242 263.804 58.9065 263.804 61.513C263.804 62.9611 263.347 64.3512 262.738 65.7414C261.976 67.4791 260.604 69.1009 259.537 70.8386C258.775 71.997 257.708 73.1555 257.861 74.3719C258.013 75.2986 259.232 75.8199 261.518 75.8199C261.671 75.9358 261.976 75.9358 262.28 75.9358Z" fill="white"/>
<path d="M96.3168 62.2081C94.1832 62.2081 92.964 61.6289 92.964 60.5283C92.8116 59.1961 93.4212 57.9218 94.1832 56.7634C94.7928 55.6049 95.7072 54.3885 96.6216 53.2301C97.3836 52.1875 98.298 51.1449 98.9076 50.1022C100.279 47.8433 100.584 45.4684 99.5172 42.9778C99.2124 42.1668 99.06 41.4718 99.06 40.8346C99.2124 39.792 100.432 39.1548 102.565 39.1548C103.327 39.1548 104.089 39.2128 105.004 39.3865C106.375 39.6182 107.899 39.9658 109.576 40.4291C113.538 41.4718 117.805 42.3985 121.92 43.2674L124.054 43.7307C126.797 44.31 130.454 45.1788 133.35 46.3952C135.636 47.3799 136.703 48.3646 136.398 49.4651C136.55 50.9132 135.331 52.1875 132.436 53.4618C129.54 54.6202 126.187 55.4891 122.53 56.4158C117.5 57.7481 112.014 59.0803 106.68 60.4125L106.07 60.5863C103.48 61.2234 100.889 61.8026 97.9932 62.1502C97.3836 62.1502 96.774 62.2081 96.3168 62.2081ZM96.3168 62.4398C96.9264 62.4398 97.536 62.3819 98.1456 62.324C101.346 61.9764 104.089 61.2813 106.985 60.6442C112.319 59.312 117.653 57.9797 122.987 56.6475C126.492 55.7208 129.845 54.794 132.74 53.5776C135.484 52.4192 137.16 51.0869 137.008 49.4072C137.16 48.1908 135.788 47.1482 133.655 46.2214C130.912 45.063 127.559 44.2521 124.206 43.4991C119.329 42.4564 114.452 41.4718 109.88 40.2554C108.356 39.8499 106.832 39.4445 105.156 39.1548C104.242 38.9811 103.327 38.8652 102.565 38.8652C100.279 38.8652 98.6028 39.5603 98.4504 40.7767C98.4504 41.5297 98.6028 42.2827 98.9076 42.9778C99.822 45.3526 99.822 47.6695 98.298 50.0443C96.9264 52.3033 94.7928 54.4465 93.5736 56.7054C92.8116 57.9797 92.3544 59.1961 92.3544 60.5283C92.5068 61.8026 93.8784 62.4398 96.3168 62.4398Z" fill="white"/>
<path d="M209.398 12.7999C209.093 12.7999 208.636 12.742 208.178 12.6841C206.807 12.3944 205.588 11.4677 205.435 10.5409C205.283 10.1354 205.435 9.32453 207.112 8.80323C207.721 8.62946 208.331 8.57153 208.94 8.51361C210.16 8.57153 211.226 8.86115 212.141 9.4983C213.512 10.3671 212.903 11.6994 210.922 12.5103C210.464 12.6841 210.007 12.7999 209.398 12.7999ZM209.398 13.0316C210.007 13.0316 210.617 12.9157 211.379 12.6841C213.512 11.8731 214.122 10.4251 212.75 9.44038C211.988 8.91907 210.922 8.39777 209.093 8.33984C208.331 8.33984 207.569 8.45569 206.959 8.68738C203.302 9.78791 205.435 12.3365 208.026 12.9157C208.483 12.9157 208.94 13.0316 209.398 13.0316Z" fill="white"/>
<path d="M104.394 1.67976C101.956 1.67976 100.584 0.926764 99.9743 0.289614C99.9743 0.231691 99.9743 0.231691 99.8219 0.173768H111.404C110.185 0.752996 108.509 1.21638 106.375 1.50599C105.766 1.67976 105.156 1.67976 104.394 1.67976ZM104.394 1.91145C105.156 1.91145 105.918 1.85353 106.68 1.73768C109.118 1.44807 111.252 0.868842 112.624 0C108.204 0 103.632 0 99.0599 0C99.2123 0.173768 99.3647 0.289614 99.5171 0.405459C100.432 1.39015 102.26 1.91145 104.394 1.91145Z" fill="white"/>
<path d="M51.5113 55.0831C50.9017 55.0831 50.2921 55.0251 49.6825 54.9672C46.1773 54.5038 43.1293 53.635 40.9957 52.882C37.0333 51.6077 32.7661 50.3913 28.4989 49.2329C26.2129 48.5957 23.7745 47.9006 21.3361 47.2056C19.8121 46.8001 18.5929 46.3367 17.6785 45.8154C14.0209 43.9619 14.3257 42.2242 18.5929 40.3127C20.4217 39.5018 22.5553 38.8647 24.5365 38.2854C30.4801 36.6636 36.5761 34.9839 42.3673 33.4199L43.1293 33.1882C45.4153 32.5511 47.3965 32.2036 49.3777 31.9719C50.1397 31.856 50.7493 31.7981 51.3589 31.7981C53.3401 31.7981 54.5593 32.2036 55.4737 33.1303C56.6929 34.4046 57.3025 35.8527 57.1501 37.5904C57.1501 39.0964 56.8453 40.6603 56.5405 42.1084L56.3881 43.2089C56.0833 44.657 56.2357 46.1629 56.6929 48.0744C56.8453 48.4219 56.8453 48.7695 56.9977 49.117C57.3025 50.3334 57.7597 51.6077 57.1501 52.8241C56.8453 53.4033 56.5405 53.7508 55.9309 54.0984C54.8641 54.7355 53.3401 55.0831 51.5113 55.0831ZM51.5113 55.3147C53.4925 55.3147 55.1689 54.9093 56.3881 54.2142C56.9977 53.8087 57.4549 53.3454 57.6073 52.882C58.3693 51.2601 57.6073 49.6383 57.1501 48.0744C56.9977 46.4526 56.6929 44.8307 56.9977 43.2089C57.3025 41.3554 57.6073 39.4439 57.7597 37.5904C57.9121 36.0265 57.4549 34.5205 56.0833 33.0724C55.1689 32.0877 53.4925 31.5664 51.3589 31.5664C50.7493 31.5664 50.1397 31.6243 49.3777 31.6823C47.0917 31.9719 44.9581 32.4352 42.8245 33.0145C36.5761 34.6942 30.3277 36.374 24.2317 38.1117C22.0981 38.6909 19.8121 39.3281 18.1357 40.139C14.1733 41.9925 13.1065 43.846 17.2213 45.9313C18.2881 46.5105 19.6597 46.9739 21.0313 47.3793C27.4321 49.2908 34.2901 51.0285 40.5385 53.0558C43.2817 53.9246 46.1773 54.7355 49.5301 55.1989C50.2921 55.2568 50.9017 55.3147 51.5113 55.3147Z" fill="white"/>
<path d="M216.865 50.218C216.713 50.218 216.713 50.218 216.56 50.218C214.427 50.1601 212.141 49.9284 209.55 49.4071C204.826 48.4224 200.558 47.2639 196.748 45.8159C193.243 44.4836 190.5 42.688 188.214 40.429C185.318 37.3591 181.051 34.4051 175.565 31.7406C174.346 31.1614 173.584 30.5243 172.822 29.8292C172.06 29.1341 171.755 28.6707 172.669 28.1494C173.431 27.686 174.65 27.4543 176.327 27.4543C176.479 27.4543 176.632 27.4543 176.784 27.4543C179.68 27.5123 182.575 27.9177 185.776 28.6128C190.957 29.7713 194.92 31.451 198.272 32.957C204.368 35.7952 209.55 37.9963 214.427 39.9077C215.341 40.2553 216.256 40.6028 217.17 40.9504C218.846 41.5875 220.523 42.2247 222.199 42.8618C223.876 43.5569 225.095 44.3099 225.857 45.1787C226.771 46.1634 226.314 47.3219 224.942 48.2486C223.571 49.1754 221.285 49.8125 218.846 50.0442H218.542C218.084 50.1601 217.475 50.218 216.865 50.218ZM216.865 50.4497C217.627 50.4497 218.237 50.3918 218.999 50.2759C224.638 49.8125 228.295 47.2639 226.466 45.1208C225.704 44.194 224.333 43.3831 222.656 42.688C220.218 41.6454 217.475 40.7187 214.884 39.734C209.245 37.5329 203.911 35.216 198.73 32.8412C195.072 31.1035 191.11 29.5396 186.08 28.439C183.185 27.8019 180.137 27.2806 176.936 27.2227C176.784 27.2227 176.632 27.2227 176.327 27.2227C174.65 27.2227 173.279 27.3964 172.212 27.9757C170.993 28.6128 171.602 29.25 172.364 29.8871C173.126 30.5822 174.041 31.2193 175.26 31.7986C180.594 34.4051 184.861 37.2433 187.757 40.429C189.738 42.4563 192.329 44.3678 196.444 45.9317C200.254 47.3798 204.673 48.5962 209.398 49.5808C211.684 50.0442 214.122 50.3918 216.713 50.4497H216.865Z" fill="white"/>
<path d="M312.115 38.2875V38.0559C309.829 38.0559 307.696 37.5345 305.105 36.3182C303.124 35.3914 301.6 34.233 300.685 32.8428C299.923 31.7423 300.99 30.8155 303.428 30.2363C306.629 29.5412 310.286 29.2516 313.639 29.0199C318.059 28.7303 322.631 28.4986 327.203 28.3828C327.355 28.3828 327.508 28.3828 327.66 28.3828C328.574 28.3828 329.489 28.4407 330.556 28.4986C331.318 28.5565 331.927 28.7303 332.384 28.962C332.842 29.1937 332.994 29.5412 332.842 29.8887C332.385 30.6997 331.47 31.5106 329.794 32.4953C326.593 34.4067 322.479 35.9706 317.602 37.2449C315.468 37.7662 313.792 38.0559 312.115 38.0559V38.2875ZM312.115 38.2875C313.792 38.2875 315.773 37.9979 317.907 37.4187C322.783 36.1444 326.898 34.5226 330.251 32.6111C331.622 31.8002 332.842 30.9314 333.451 29.9467C333.908 29.1357 332.689 28.4407 330.708 28.3248C329.794 28.2669 328.727 28.209 327.66 28.209C327.508 28.209 327.355 28.209 327.203 28.209C322.631 28.3248 318.059 28.5565 313.487 28.8461C309.982 29.0778 306.476 29.3674 303.124 30.1204C300.38 30.6997 299.314 31.7423 300.076 32.9587C300.99 34.2909 302.362 35.5073 304.648 36.5499C307.238 37.6504 309.524 38.2875 312.115 38.2875Z" fill="white"/>
</g>
</svg>
