<svg width="48" height="48" viewBox="0 0 48 48" fill="none" xmlns="http://www.w3.org/2000/svg">
<rect width="48" height="48" rx="24" fill="#006D77"/>
<path d="M22.9023 31.8701H29.3723C33.0723 31.8701 33.9923 30.9501 33.9923 27.2501C32.7123 27.2501 31.6823 26.2101 31.6823 24.9401C31.6823 23.6601 32.7123 22.6201 33.9923 22.6201V21.7001C33.9923 18.0001 33.0723 17.0801 29.3723 17.0801H22.9923V23.8701" stroke="white" stroke-width="1.5" stroke-linecap="round" stroke-linejoin="round"/>
<path d="M22.9936 28.87V31.87H20.2236C18.7436 31.87 17.8736 30.86 16.9136 28.54L16.7336 28.09C17.9436 27.61 18.5336 26.21 18.0236 25C17.5336 23.79 16.1436 23.21 14.9236 23.71L14.7536 23.28C13.3136 19.76 13.8136 18.53 17.3336 17.08L19.9736 16L22.9936 23.32V25.87" stroke="white" stroke-width="1.5" stroke-linecap="round" stroke-linejoin="round"/>
<path d="M20.1622 31.8701H19.9922" stroke="white" stroke-width="1.5" stroke-linecap="round" stroke-linejoin="round"/>
</svg>
