<svg width="36" height="36" viewBox="0 0 36 36" fill="none" xmlns="http://www.w3.org/2000/svg">
<path d="M26.25 23.25C26.25 23.6478 26.092 24.0294 25.8107 24.3107C25.5294 24.592 25.1478 24.75 24.75 24.75H11.25C10.8522 24.75 10.4706 24.592 10.1893 24.3107C9.90804 24.0294 9.75 23.6478 9.75 23.25V15C9.75 14.6022 9.90804 14.2206 10.1893 13.9393C10.4706 13.658 10.8522 13.5 11.25 13.5H14.25L15.75 11.25H20.25L21.75 13.5H24.75C25.1478 13.5 25.5294 13.658 25.8107 13.9393C26.092 14.2206 26.25 14.6022 26.25 15V23.25Z" stroke="#626A6A" stroke-width="1.5" stroke-linecap="round" stroke-linejoin="round"/>
<path d="M18 21.75C19.6569 21.75 21 20.4069 21 18.75C21 17.0931 19.6569 15.75 18 15.75C16.3431 15.75 15 17.0931 15 18.75C15 20.4069 16.3431 21.75 18 21.75Z" stroke="#626A6A" stroke-width="1.5" stroke-linecap="round" stroke-linejoin="round"/>
</svg>
