<svg width="210" height="286" viewBox="0 0 210 286" fill="none" xmlns="http://www.w3.org/2000/svg">
<g clip-path="url(#clip0_1878_1167)">
<path d="M204.444 23.2568L204.5 201.795C204.502 206.182 201.508 209.942 197.151 209.944L20.8064 210C16.4476 210.002 13.0351 206.244 13.0331 201.857L12.9751 23.3172C12.973 18.9301 16.3834 15.408 20.7443 15.4059L197.089 15.3496C201.446 15.3496 204.442 18.8697 204.444 23.2568Z" fill="#CCCBCA"/>
<path d="M204.444 23.2576L204.457 61.5783L151.739 19.9647L12.7144 23.3264C12.7123 18.9393 16.3857 15.4088 20.7444 15.4088L197.089 15.3525C201.446 15.3505 204.442 18.8705 204.444 23.2576Z" fill="#D83D2B"/>
<path d="M196.969 14.3667L197.025 192.905C197.027 197.292 193.552 200.543 189.196 200.545L12.8509 200.602C8.49212 200.604 5.56005 197.352 5.55798 192.965L5.5 14.4272C5.49793 10.0401 8.42793 6.01148 12.7888 6.0094L189.134 5.95312C193.49 5.95312 196.967 9.97964 196.969 14.3667Z" fill="white"/>
<path d="M196.969 14.3667L196.981 55.774L5.51243 55.8365L5.5 14.4272C5.49793 10.0401 8.42793 6.01148 12.7888 6.0094L189.134 5.95312C193.49 5.95312 196.967 9.97964 196.969 14.3667Z" fill="#FF482C"/>
<path d="M56.0555 83.3086H30.874V105.984H56.0555V83.3086Z" fill="#475059"/>
<path d="M95.1497 83.2969H69.9683V105.972H95.1497V83.2969Z" fill="#475059"/>
<path d="M134.246 83.2842H109.065V105.959H134.246V83.2842Z" fill="#475059"/>
<path d="M173.343 83.2715H148.161V105.947H173.343V83.2715Z" fill="#475059"/>
<path d="M56.0657 117.321H30.8843V139.997H56.0657V117.321Z" fill="#475059"/>
<path d="M95.1624 117.31H69.981V139.985H95.1624V117.31Z" fill="#475059"/>
<path d="M134.257 117.297H109.075V139.972H134.257V117.297Z" fill="#475059"/>
<path d="M173.353 117.284H148.171V139.959H173.353V117.284Z" fill="#475059"/>
<path d="M56.076 149.472H30.8945V172.147H56.076V149.472Z" fill="#475059"/>
<path d="M95.1707 149.459H69.9893V172.134H95.1707V149.459Z" fill="#475059"/>
<path d="M134.267 149.446H109.085V172.122H134.267V149.446Z" fill="#475059"/>
<path d="M172.56 149.434H147.378V172.109H172.56V149.434Z" fill="#475059"/>
<path d="M57.6334 36.871C57.6354 40.9642 54.3389 44.2821 50.2721 44.2842C46.2053 44.2863 42.9088 40.9683 42.9067 36.8751C42.9047 32.7819 46.2012 29.464 50.268 29.4619C54.3348 29.4619 57.6313 32.7798 57.6334 36.871Z" fill="#475059"/>
<path d="M153.928 36.8417C153.93 40.9349 150.633 44.2528 146.567 44.2549C142.5 44.257 139.203 40.939 139.201 36.8458C139.199 32.7526 142.496 29.4347 146.562 29.4326C150.629 29.4305 153.926 32.7485 153.928 36.8417Z" fill="#475059"/>
<path d="M51.4253 3.5372C52.3178 2.65353 53.7735 2.65562 54.639 3.56638C55.1981 4.15618 55.7551 5.07528 56.2252 6.48623H57.0348C57.0348 6.48623 56.7076 4.26247 55.4631 2.36592C54.1524 0.369337 51.6428 -0.449721 49.3899 0.313066C47.7623 0.865358 45.6813 2.06998 43.9523 4.68763C42.6291 6.69047 41.8857 9.0226 41.718 11.4214C41.3764 16.2753 41.4385 27.1315 47.7665 33.9091L54.3926 33.907C54.3926 33.9091 40.3597 14.4913 51.4253 3.5372Z" fill="#EDF7F9"/>
<path d="M148.308 3.50595C149.201 2.62228 150.656 2.62437 151.522 3.53513C152.081 4.12493 152.638 5.04403 153.108 6.45498H153.918C153.918 6.45498 153.59 4.23122 152.346 2.33467C151.035 0.338087 148.526 -0.480971 146.273 0.281816C144.645 0.834108 142.564 2.03873 140.835 4.65638C139.512 6.65922 138.769 8.99135 138.601 11.3923C138.259 16.2462 138.321 27.1023 144.649 33.8799L151.275 33.8778C151.275 33.8778 137.242 14.4601 148.308 3.50595Z" fill="#EDF7F9"/>
</g>
<path d="M1.68 279V261.72H8.532C9.7 261.72 10.656 261.956 11.4 262.428C12.152 262.892 12.708 263.488 13.068 264.216C13.436 264.944 13.62 265.696 13.62 266.472C13.62 267.424 13.392 268.232 12.936 268.896C12.488 269.56 11.876 270.008 11.1 270.24V269.64C12.188 269.888 13.012 270.404 13.572 271.188C14.14 271.972 14.424 272.864 14.424 273.864C14.424 274.888 14.228 275.784 13.836 276.552C13.444 277.32 12.86 277.92 12.084 278.352C11.316 278.784 10.364 279 9.228 279H1.68ZM4.608 276.276H8.868C9.372 276.276 9.824 276.176 10.224 275.976C10.624 275.768 10.936 275.48 11.16 275.112C11.392 274.736 11.508 274.292 11.508 273.78C11.508 273.316 11.408 272.9 11.208 272.532C11.008 272.164 10.716 271.872 10.332 271.656C9.948 271.432 9.488 271.32 8.952 271.32H4.608V276.276ZM4.608 268.62H8.496C8.912 268.62 9.284 268.54 9.612 268.38C9.94 268.22 10.2 267.984 10.392 267.672C10.584 267.36 10.68 266.976 10.68 266.52C10.68 265.92 10.488 265.42 10.104 265.02C9.72 264.62 9.184 264.42 8.496 264.42H4.608V268.62ZM22.5446 279.36C21.2486 279.36 20.1166 279.068 19.1486 278.484C18.1806 277.9 17.4286 277.096 16.8926 276.072C16.3646 275.04 16.1006 273.856 16.1006 272.52C16.1006 271.16 16.3726 269.968 16.9166 268.944C17.4606 267.92 18.2166 267.12 19.1846 266.544C20.1526 265.968 21.2726 265.68 22.5446 265.68C23.8486 265.68 24.9846 265.972 25.9526 266.556C26.9206 267.14 27.6726 267.948 28.2086 268.98C28.7446 270.004 29.0126 271.184 29.0126 272.52C29.0126 273.864 28.7406 275.052 28.1966 276.084C27.6606 277.108 26.9086 277.912 25.9406 278.496C24.9726 279.072 23.8406 279.36 22.5446 279.36ZM22.5446 276.648C23.6966 276.648 24.5526 276.264 25.1126 275.496C25.6726 274.728 25.9526 273.736 25.9526 272.52C25.9526 271.264 25.6686 270.264 25.1006 269.52C24.5326 268.768 23.6806 268.392 22.5446 268.392C21.7686 268.392 21.1286 268.568 20.6246 268.92C20.1286 269.264 19.7606 269.748 19.5206 270.372C19.2806 270.988 19.1606 271.704 19.1606 272.52C19.1606 273.776 19.4446 274.78 20.0126 275.532C20.5886 276.276 21.4326 276.648 22.5446 276.648ZM37.3806 279.36C36.0846 279.36 34.9526 279.068 33.9846 278.484C33.0166 277.9 32.2646 277.096 31.7286 276.072C31.2006 275.04 30.9366 273.856 30.9366 272.52C30.9366 271.16 31.2086 269.968 31.7526 268.944C32.2966 267.92 33.0526 267.12 34.0206 266.544C34.9886 265.968 36.1086 265.68 37.3806 265.68C38.6846 265.68 39.8206 265.972 40.7886 266.556C41.7566 267.14 42.5086 267.948 43.0446 268.98C43.5806 270.004 43.8486 271.184 43.8486 272.52C43.8486 273.864 43.5766 275.052 43.0326 276.084C42.4966 277.108 41.7446 277.912 40.7766 278.496C39.8086 279.072 38.6766 279.36 37.3806 279.36ZM37.3806 276.648C38.5326 276.648 39.3886 276.264 39.9486 275.496C40.5086 274.728 40.7886 273.736 40.7886 272.52C40.7886 271.264 40.5046 270.264 39.9366 269.52C39.3686 268.768 38.5166 268.392 37.3806 268.392C36.6046 268.392 35.9646 268.568 35.4606 268.92C34.9646 269.264 34.5966 269.748 34.3566 270.372C34.1166 270.988 33.9966 271.704 33.9966 272.52C33.9966 273.776 34.2806 274.78 34.8486 275.532C35.4246 276.276 36.2686 276.648 37.3806 276.648ZM46.4685 279L46.4925 261.72H49.4205V272.28L54.1605 266.04H57.7725L52.7445 272.52L58.2045 279H54.3765L49.4205 272.76V279H46.4685ZM59.6466 264.072V261.42H62.5386V264.072H59.6466ZM59.6466 279V266.04H62.5386V279H59.6466ZM75.0971 279V272.76C75.0971 272.352 75.0691 271.9 75.0131 271.404C74.9571 270.908 74.8251 270.432 74.6171 269.976C74.4171 269.512 74.1131 269.132 73.7051 268.836C73.3051 268.54 72.7611 268.392 72.0731 268.392C71.7051 268.392 71.3411 268.452 70.9811 268.572C70.6211 268.692 70.2931 268.9 69.9971 269.196C69.7091 269.484 69.4771 269.884 69.3011 270.396C69.1251 270.9 69.0371 271.548 69.0371 272.34L67.3211 271.608C67.3211 270.504 67.5331 269.504 67.9571 268.608C68.3891 267.712 69.0211 267 69.8531 266.472C70.6851 265.936 71.7091 265.668 72.9251 265.668C73.8851 265.668 74.6771 265.828 75.3011 266.148C75.9251 266.468 76.4211 266.876 76.7891 267.372C77.1571 267.868 77.4291 268.396 77.6051 268.956C77.7811 269.516 77.8931 270.048 77.9411 270.552C77.9971 271.048 78.0251 271.452 78.0251 271.764V279H75.0971ZM66.1091 279V266.04H68.6891V270.06H69.0371V279H66.1091ZM86.6046 285.12C85.8846 285.12 85.1926 285.008 84.5286 284.784C83.8726 284.56 83.2806 284.236 82.7526 283.812C82.2246 283.396 81.7926 282.892 81.4566 282.3L84.1206 280.98C84.3686 281.452 84.7166 281.8 85.1646 282.024C85.6206 282.256 86.1046 282.372 86.6166 282.372C87.2166 282.372 87.7526 282.264 88.2246 282.048C88.6966 281.84 89.0606 281.528 89.3166 281.112C89.5806 280.704 89.7046 280.192 89.6886 279.576V275.892H90.0486V266.04H92.5806V279.624C92.5806 279.952 92.5646 280.264 92.5326 280.56C92.5086 280.864 92.4646 281.16 92.4006 281.448C92.2086 282.288 91.8406 282.976 91.2966 283.512C90.7526 284.056 90.0766 284.46 89.2686 284.724C88.4686 284.988 87.5806 285.12 86.6046 285.12ZM86.3526 279.36C85.1606 279.36 84.1206 279.06 83.2326 278.46C82.3446 277.86 81.6566 277.044 81.1686 276.012C80.6806 274.98 80.4366 273.816 80.4366 272.52C80.4366 271.208 80.6806 270.04 81.1686 269.016C81.6646 267.984 82.3646 267.172 83.2686 266.58C84.1726 265.98 85.2366 265.68 86.4606 265.68C87.6926 265.68 88.7246 265.98 89.5566 266.58C90.3966 267.172 91.0326 267.984 91.4646 269.016C91.8966 270.048 92.1126 271.216 92.1126 272.52C92.1126 273.808 91.8966 274.972 91.4646 276.012C91.0326 277.044 90.3886 277.86 89.5326 278.46C88.6766 279.06 87.6166 279.36 86.3526 279.36ZM86.7966 276.768C87.5726 276.768 88.1966 276.592 88.6686 276.24C89.1486 275.88 89.4966 275.38 89.7126 274.74C89.9366 274.1 90.0486 273.36 90.0486 272.52C90.0486 271.672 89.9366 270.932 89.7126 270.3C89.4966 269.66 89.1566 269.164 88.6926 268.812C88.2286 268.452 87.6286 268.272 86.8926 268.272C86.1166 268.272 85.4766 268.464 84.9726 268.848C84.4686 269.224 84.0966 269.736 83.8566 270.384C83.6166 271.024 83.4966 271.736 83.4966 272.52C83.4966 273.312 83.6126 274.032 83.8446 274.68C84.0846 275.32 84.4486 275.828 84.9366 276.204C85.4246 276.58 86.0446 276.768 86.7966 276.768ZM108.058 279.36C106.33 279.36 104.85 278.984 103.618 278.232C102.386 277.472 101.438 276.416 100.774 275.064C100.118 273.712 99.7903 272.144 99.7903 270.36C99.7903 268.576 100.118 267.008 100.774 265.656C101.438 264.304 102.386 263.252 103.618 262.5C104.85 261.74 106.33 261.36 108.058 261.36C110.05 261.36 111.71 261.86 113.038 262.86C114.366 263.852 115.298 265.192 115.834 266.88L112.918 267.684C112.582 266.556 112.01 265.676 111.202 265.044C110.394 264.404 109.346 264.084 108.058 264.084C106.898 264.084 105.93 264.344 105.154 264.864C104.386 265.384 103.806 266.116 103.414 267.06C103.03 267.996 102.834 269.096 102.826 270.36C102.826 271.624 103.018 272.728 103.402 273.672C103.794 274.608 104.378 275.336 105.154 275.856C105.93 276.376 106.898 276.636 108.058 276.636C109.346 276.636 110.394 276.316 111.202 275.676C112.01 275.036 112.582 274.156 112.918 273.036L115.834 273.84C115.298 275.528 114.366 276.872 113.038 277.872C111.71 278.864 110.05 279.36 108.058 279.36ZM122.093 279.36C121.157 279.36 120.365 279.184 119.717 278.832C119.069 278.472 118.577 277.996 118.241 277.404C117.913 276.812 117.749 276.16 117.749 275.448C117.749 274.824 117.853 274.264 118.061 273.768C118.269 273.264 118.589 272.832 119.021 272.472C119.453 272.104 120.013 271.804 120.701 271.572C121.221 271.404 121.829 271.252 122.525 271.116C123.229 270.98 123.989 270.856 124.805 270.744C125.629 270.624 126.489 270.496 127.385 270.36L126.353 270.948C126.361 270.052 126.161 269.392 125.753 268.968C125.345 268.544 124.657 268.332 123.689 268.332C123.105 268.332 122.541 268.468 121.997 268.74C121.453 269.012 121.073 269.48 120.857 270.144L118.217 269.316C118.537 268.22 119.145 267.34 120.041 266.676C120.945 266.012 122.161 265.68 123.689 265.68C124.841 265.68 125.853 265.868 126.725 266.244C127.605 266.62 128.257 267.236 128.681 268.092C128.913 268.548 129.053 269.016 129.101 269.496C129.149 269.968 129.173 270.484 129.173 271.044V279H126.641V276.192L127.061 276.648C126.477 277.584 125.793 278.272 125.009 278.712C124.233 279.144 123.261 279.36 122.093 279.36ZM122.669 277.056C123.325 277.056 123.885 276.94 124.349 276.708C124.813 276.476 125.181 276.192 125.453 275.856C125.733 275.52 125.921 275.204 126.017 274.908C126.169 274.54 126.253 274.12 126.269 273.648C126.293 273.168 126.305 272.78 126.305 272.484L127.193 272.748C126.321 272.884 125.573 273.004 124.949 273.108C124.325 273.212 123.789 273.312 123.341 273.408C122.893 273.496 122.497 273.596 122.153 273.708C121.817 273.828 121.533 273.968 121.301 274.128C121.069 274.288 120.889 274.472 120.761 274.68C120.641 274.888 120.581 275.132 120.581 275.412C120.581 275.732 120.661 276.016 120.821 276.264C120.981 276.504 121.213 276.696 121.517 276.84C121.829 276.984 122.213 277.056 122.669 277.056ZM141.261 279V272.76C141.261 272.352 141.233 271.9 141.177 271.404C141.121 270.908 140.989 270.432 140.781 269.976C140.581 269.512 140.277 269.132 139.869 268.836C139.469 268.54 138.925 268.392 138.237 268.392C137.869 268.392 137.505 268.452 137.145 268.572C136.785 268.692 136.457 268.9 136.161 269.196C135.873 269.484 135.641 269.884 135.465 270.396C135.289 270.9 135.201 271.548 135.201 272.34L133.485 271.608C133.485 270.504 133.697 269.504 134.121 268.608C134.553 267.712 135.185 267 136.017 266.472C136.849 265.936 137.873 265.668 139.089 265.668C140.049 265.668 140.841 265.828 141.465 266.148C142.089 266.468 142.585 266.876 142.953 267.372C143.321 267.868 143.593 268.396 143.769 268.956C143.945 269.516 144.057 270.048 144.105 270.552C144.161 271.048 144.189 271.452 144.189 271.764V279H141.261ZM132.273 279V266.04H134.853V270.06H135.201V279H132.273ZM152.738 279.36C151.402 279.36 150.262 279.064 149.318 278.472C148.374 277.872 147.65 277.056 147.146 276.024C146.65 274.992 146.398 273.824 146.39 272.52C146.398 271.192 146.658 270.016 147.17 268.992C147.69 267.96 148.426 267.152 149.378 266.568C150.33 265.976 151.462 265.68 152.774 265.68C154.246 265.68 155.49 266.052 156.506 266.796C157.53 267.532 158.198 268.54 158.51 269.82L155.63 270.6C155.406 269.904 155.034 269.364 154.514 268.98C153.994 268.588 153.402 268.392 152.738 268.392C151.986 268.392 151.366 268.572 150.878 268.932C150.39 269.284 150.03 269.772 149.798 270.396C149.566 271.02 149.45 271.728 149.45 272.52C149.45 273.752 149.726 274.748 150.278 275.508C150.83 276.268 151.65 276.648 152.738 276.648C153.506 276.648 154.11 276.472 154.55 276.12C154.998 275.768 155.334 275.26 155.558 274.596L158.51 275.256C158.11 276.576 157.41 277.592 156.41 278.304C155.41 279.008 154.186 279.36 152.738 279.36ZM166.455 279.36C165.143 279.36 163.991 279.076 162.999 278.508C162.007 277.94 161.231 277.152 160.671 276.144C160.119 275.136 159.843 273.976 159.843 272.664C159.843 271.248 160.115 270.02 160.659 268.98C161.203 267.932 161.959 267.12 162.927 266.544C163.895 265.968 165.015 265.68 166.287 265.68C167.631 265.68 168.771 265.996 169.707 266.628C170.651 267.252 171.351 268.136 171.807 269.28C172.263 270.424 172.435 271.772 172.323 273.324H169.455V272.268C169.447 270.86 169.199 269.832 168.711 269.184C168.223 268.536 167.455 268.212 166.407 268.212C165.223 268.212 164.343 268.58 163.767 269.316C163.191 270.044 162.903 271.112 162.903 272.52C162.903 273.832 163.191 274.848 163.767 275.568C164.343 276.288 165.183 276.648 166.287 276.648C166.999 276.648 167.611 276.492 168.123 276.18C168.643 275.86 169.043 275.4 169.323 274.8L172.179 275.664C171.683 276.832 170.915 277.74 169.875 278.388C168.843 279.036 167.703 279.36 166.455 279.36ZM161.991 273.324V271.14H170.907V273.324H161.991ZM175.24 279V261.36H178.132V279H175.24ZM187.619 279.36C186.307 279.36 185.155 279.076 184.163 278.508C183.171 277.94 182.395 277.152 181.835 276.144C181.283 275.136 181.007 273.976 181.007 272.664C181.007 271.248 181.279 270.02 181.823 268.98C182.367 267.932 183.123 267.12 184.091 266.544C185.059 265.968 186.179 265.68 187.451 265.68C188.795 265.68 189.935 265.996 190.871 266.628C191.815 267.252 192.515 268.136 192.971 269.28C193.427 270.424 193.599 271.772 193.487 273.324H190.619V272.268C190.611 270.86 190.363 269.832 189.875 269.184C189.387 268.536 188.619 268.212 187.571 268.212C186.387 268.212 185.507 268.58 184.931 269.316C184.355 270.044 184.067 271.112 184.067 272.52C184.067 273.832 184.355 274.848 184.931 275.568C185.507 276.288 186.347 276.648 187.451 276.648C188.163 276.648 188.775 276.492 189.287 276.18C189.807 275.86 190.207 275.4 190.487 274.8L193.343 275.664C192.847 276.832 192.079 277.74 191.039 278.388C190.007 279.036 188.867 279.36 187.619 279.36ZM183.155 273.324V271.14H192.071V273.324H183.155ZM201.36 279.36C200.168 279.36 199.128 279.06 198.24 278.46C197.352 277.86 196.664 277.044 196.176 276.012C195.688 274.98 195.444 273.816 195.444 272.52C195.444 271.208 195.688 270.04 196.176 269.016C196.672 267.984 197.372 267.172 198.276 266.58C199.18 265.98 200.244 265.68 201.468 265.68C202.7 265.68 203.732 265.98 204.564 266.58C205.404 267.172 206.04 267.984 206.472 269.016C206.904 270.048 207.12 271.216 207.12 272.52C207.12 273.808 206.904 274.972 206.472 276.012C206.04 277.044 205.396 277.86 204.54 278.46C203.684 279.06 202.624 279.36 201.36 279.36ZM201.804 276.768C202.58 276.768 203.204 276.592 203.676 276.24C204.156 275.88 204.504 275.38 204.72 274.74C204.944 274.1 205.056 273.36 205.056 272.52C205.056 271.672 204.944 270.932 204.72 270.3C204.504 269.66 204.164 269.164 203.7 268.812C203.236 268.452 202.636 268.272 201.9 268.272C201.124 268.272 200.484 268.464 199.98 268.848C199.476 269.224 199.104 269.736 198.864 270.384C198.624 271.024 198.504 271.736 198.504 272.52C198.504 273.312 198.62 274.032 198.852 274.68C199.092 275.32 199.456 275.828 199.944 276.204C200.432 276.58 201.052 276.768 201.804 276.768ZM205.056 279V269.904H204.696V261.72H207.612V279H205.056Z" fill="#FF482C"/>
<defs>
<clipPath id="clip0_1878_1167">
<rect width="199" height="210" fill="white" transform="translate(5.5)"/>
</clipPath>
</defs>
</svg>
