<svg width="22" height="22" viewBox="0 0 22 22" fill="none" xmlns="http://www.w3.org/2000/svg">
<path fill-rule="evenodd" clip-rule="evenodd" d="M1.75 5C1.75 3.20507 3.20507 1.75 5 1.75H16C16.4142 1.75 16.75 1.41421 16.75 1C16.75 0.585786 16.4142 0.25 16 0.25H5C2.37665 0.25 0.25 2.37665 0.25 5V17C0.25 19.6234 2.37665 21.75 5 21.75H17C19.6234 21.75 21.75 19.6234 21.75 17V8C21.75 7.58579 21.4142 7.25 21 7.25C20.5858 7.25 20.25 7.58579 20.25 8V17C20.25 18.7949 18.7949 20.25 17 20.25H5C3.20507 20.25 1.75 18.7949 1.75 17V5ZM20.5575 3.50173C20.8346 3.19385 20.8096 2.71963 20.5018 2.44254C20.1939 2.16544 19.7197 2.1904 19.4426 2.49828L11.705 11.0956C11.262 11.5878 10.512 11.6492 9.99497 11.2355L6.46855 8.41436C6.1451 8.1556 5.67313 8.20804 5.41438 8.53149C5.15562 8.85493 5.20806 9.3269 5.53151 9.58566L9.05793 12.4068C10.1955 13.3168 11.8454 13.1819 12.8199 12.0991L20.5575 3.50173Z" fill="#626A6A"/>
</svg>
