<svg width="18" height="18" viewBox="0 0 18 18" fill="none" xmlns="http://www.w3.org/2000/svg">
<g clip-path="url(#clip0_2623_5615)">
<path d="M2.3421 13.2592L1.82348 13.8009H1.82348L2.3421 13.2592ZM2.3421 9.24084L2.86073 9.78262L2.3421 9.24084ZM15.6579 13.2592L15.1393 12.7174L15.6579 13.2592ZM15.6579 9.24084L16.1765 8.69905L15.6579 9.24084ZM9.74998 1.5C9.74998 1.08579 9.41419 0.75 8.99998 0.75C8.58576 0.75 8.24998 1.08579 8.24998 1.5H9.74998ZM8.24998 3C8.24998 3.41421 8.58576 3.75 8.99998 3.75C9.41419 3.75 9.74998 3.41421 9.74998 3H8.24998ZM16.2803 4.28033C16.5732 3.98744 16.5732 3.51256 16.2803 3.21967C15.9874 2.92678 15.5125 2.92678 15.2196 3.21967L16.2803 4.28033ZM14.0946 4.34467C13.8018 4.63756 13.8018 5.11244 14.0946 5.40533C14.3875 5.69822 14.8624 5.69822 15.1553 5.40533L14.0946 4.34467ZM2.78031 3.21967C2.48741 2.92678 2.01254 2.92678 1.71965 3.21967C1.42675 3.51256 1.42675 3.98744 1.71965 4.28033L2.78031 3.21967ZM2.84465 5.40533C3.13754 5.69822 3.61241 5.69822 3.90531 5.40533C4.1982 5.11244 4.1982 4.63756 3.90531 4.34467L2.84465 5.40533ZM15.1393 12.7174C13.6216 14.1702 11.3985 15.75 9 15.75V17.25C12.0078 17.25 14.5985 15.3115 16.1765 13.8009L15.1393 12.7174ZM9 15.75C6.60148 15.75 4.37841 14.1702 2.86073 12.7174L1.82348 13.8009C3.40151 15.3115 5.99221 17.25 9 17.25V15.75ZM2.86073 9.78262C4.37841 8.3298 6.60148 6.75 9 6.75V5.25C5.99221 5.25 3.40151 7.18847 1.82348 8.69905L2.86073 9.78262ZM9 6.75C11.3985 6.75 13.6216 8.3298 15.1393 9.78262L16.1765 8.69905C14.5985 7.18847 12.0078 5.25 9 5.25V6.75ZM2.86073 12.7174C2.04642 11.9379 2.04642 10.5621 2.86073 9.78262L1.82348 8.69905C0.392173 10.0692 0.392174 12.4308 1.82348 13.8009L2.86073 12.7174ZM16.1765 13.8009C17.6078 12.4308 17.6078 10.0692 16.1765 8.69905L15.1393 9.78262C15.9536 10.5621 15.9536 11.9379 15.1393 12.7174L16.1765 13.8009ZM10.5 11.25C10.5 12.0784 9.8284 12.75 8.99998 12.75V14.25C10.6568 14.25 12 12.9069 12 11.25H10.5ZM8.99998 12.75C8.17155 12.75 7.49998 12.0784 7.49998 11.25H5.99998C5.99998 12.9069 7.34312 14.25 8.99998 14.25V12.75ZM7.49998 11.25C7.49998 10.4216 8.17155 9.75 8.99998 9.75V8.25C7.34312 8.25 5.99998 9.59315 5.99998 11.25H7.49998ZM8.99998 9.75C9.8284 9.75 10.5 10.4216 10.5 11.25H12C12 9.59315 10.6568 8.25 8.99998 8.25V9.75ZM8.24998 1.5V3H9.74998V1.5H8.24998ZM15.2196 3.21967L14.0946 4.34467L15.1553 5.40533L16.2803 4.28033L15.2196 3.21967ZM1.71965 4.28033L2.84465 5.40533L3.90531 4.34467L2.78031 3.21967L1.71965 4.28033Z" fill="#28303F"/>
</g>
<defs>
<clipPath id="clip0_2623_5615">
<rect width="18" height="18" fill="white"/>
</clipPath>
</defs>
</svg>
