<svg width="20" height="22" viewBox="0 0 20 22" fill="none" xmlns="http://www.w3.org/2000/svg">
<path d="M18.6306 4.34564L19.2264 4.80124C19.2354 4.78944 19.2441 4.77738 19.2524 4.76506L18.6306 4.34564ZM12.9089 11.8274L12.3132 11.3718C12.3042 11.3836 12.2955 11.3957 12.2872 11.408L12.9089 11.8274ZM11.8586 18.5307L12.3858 19.0642L11.8586 18.5307ZM9.68111 20.6827L9.15392 20.1492L9.68111 20.6827ZM7.09107 11.8274L7.71283 11.408C7.70452 11.3957 7.69585 11.3836 7.68683 11.3718L7.09107 11.8274ZM1.36937 4.34564L0.747617 4.76506C0.755923 4.77738 0.764594 4.78944 0.773617 4.80124L1.36937 4.34564ZM3.18117 1.75H16.8188V0.25H3.18117V1.75ZM18.0349 3.89003L12.3132 11.3718L13.5047 12.283L19.2264 4.80124L18.0349 3.89003ZM11.4275 14.2148V17.7699H12.9275V14.2148H11.4275ZM11.3314 17.9973L9.15392 20.1492L10.2083 21.2161L12.3858 19.0642L11.3314 17.9973ZM8.57249 19.9219V14.2148H7.07249V19.9219H8.57249ZM7.68683 11.3718L1.96513 3.89003L0.773617 4.80124L6.49531 12.283L7.68683 11.3718ZM8.57249 14.2148C8.57249 13.2151 8.27301 12.2384 7.71283 11.408L6.46931 12.2469C6.86298 12.8304 7.07249 13.5152 7.07249 14.2148H8.57249ZM9.15392 20.1492C8.92865 20.3719 8.57249 20.196 8.57249 19.9219H7.07249C7.07249 21.5649 9.06182 22.3492 10.2083 21.2161L9.15392 20.1492ZM11.4275 17.7699C11.4275 17.8535 11.394 17.9355 11.3314 17.9973L12.3858 19.0642C12.7316 18.7225 12.9275 18.2571 12.9275 17.7699H11.4275ZM12.2872 11.408C11.727 12.2384 11.4275 13.2151 11.4275 14.2148H12.9275C12.9275 13.5152 13.137 12.8304 13.5307 12.2469L12.2872 11.408ZM16.8188 1.75C17.9735 1.75 18.6284 3.00775 18.0089 3.92621L19.2524 4.76506C20.5622 2.82335 19.1425 0.25 16.8188 0.25V1.75ZM3.18117 0.25C0.857474 0.25 -0.562237 2.82334 0.747617 4.76506L1.99113 3.92621C1.37155 3.00775 2.02653 1.75 3.18117 1.75V0.25Z" fill="#626A6A"/>
</svg>
