<svg width="20" height="22" viewBox="0 0 20 22" fill="none" xmlns="http://www.w3.org/2000/svg">
<path d="M2.46986 6.02652L1.99311 5.44755H1.99311L2.46986 6.02652ZM7.46986 1.90935L6.99311 1.33037V1.33037L7.46986 1.90935ZM12.5301 1.90935L12.0534 2.48832L12.5301 1.90935ZM17.5301 6.02652L17.0534 6.6055V6.6055L17.5301 6.02652ZM18.25 9.15033V16.9668H19.75V9.15033H18.25ZM15 20.25H5V21.75H15V20.25ZM1.75 16.9668V9.15033H0.25V16.9668H1.75ZM2.94661 6.6055L7.94661 2.48832L6.99311 1.33037L1.99311 5.44755L2.94661 6.6055ZM12.0534 2.48832L17.0534 6.6055L18.0069 5.44755L13.0069 1.33037L12.0534 2.48832ZM7.94661 2.48832C9.14212 1.50389 10.8579 1.50389 12.0534 2.48832L13.0069 1.33037C11.2575 -0.110126 8.74248 -0.110122 6.99311 1.33037L7.94661 2.48832ZM5 20.25C3.2109 20.25 1.75 18.7859 1.75 16.9668H0.25C0.25 19.6027 2.37082 21.75 5 21.75V20.25ZM18.25 16.9668C18.25 18.7859 16.7891 20.25 15 20.25V21.75C17.6292 21.75 19.75 19.6027 19.75 16.9668H18.25ZM19.75 9.15033C19.75 7.71654 19.1111 6.35681 18.0069 5.44755L17.0534 6.6055C17.8096 7.22818 18.25 8.16221 18.25 9.15033H19.75ZM1.75 9.15033C1.75 8.16221 2.1904 7.22819 2.94661 6.6055L1.99311 5.44755C0.888887 6.35681 0.25 7.71654 0.25 9.15033H1.75Z" fill="#626A6A"/>
</svg>
