<svg width="36" height="36" viewBox="0 0 36 36" fill="none" xmlns="http://www.w3.org/2000/svg">
<path d="M25.08 17.2877L18.1875 24.1802C17.3431 25.0246 16.1979 25.4989 15.0037 25.4989C13.8096 25.4989 12.6644 25.0246 11.82 24.1802C10.9756 23.3358 10.5012 22.1906 10.5012 20.9964C10.5012 19.8023 10.9756 18.6571 11.82 17.8127L18.7125 10.9202C19.2754 10.3573 20.0389 10.041 20.835 10.041C21.6311 10.041 22.3946 10.3573 22.9575 10.9202C23.5204 11.4831 23.8366 12.2466 23.8366 13.0427C23.8366 13.8388 23.5204 14.6023 22.9575 15.1652L16.0575 22.0577C15.776 22.3391 15.3943 22.4973 14.9962 22.4973C14.5982 22.4973 14.2164 22.3391 13.935 22.0577C13.6535 21.7762 13.4954 21.3945 13.4954 20.9964C13.4954 20.5984 13.6535 20.2166 13.935 19.9352L20.3025 13.5752" stroke="#626A6A" stroke-width="1.5" stroke-linecap="round" stroke-linejoin="round"/>
</svg>
