<svg width="21" height="22" viewBox="0 0 21 22" fill="none" xmlns="http://www.w3.org/2000/svg">
<mask id="path-1-inside-1_1269_16296" fill="white">
<path d="M10.5 0.5C12.5767 0.5 14.6068 1.11581 16.3335 2.26957C18.0602 3.42332 19.406 5.0632 20.2007 6.98182C20.9955 8.90045 21.2034 11.0116 20.7982 13.0484C20.3931 15.0852 19.3931 16.9562 17.9246 18.4246C16.4562 19.8931 14.5852 20.8931 12.5484 21.2982C10.5116 21.7034 8.40045 21.4955 6.48182 20.7007C4.5632 19.906 2.92332 18.5602 1.76957 16.8335C0.615814 15.1068 -4.95289e-08 13.0767 0 11H2.27909C2.27909 12.6259 2.76124 14.2154 3.66457 15.5673C4.56789 16.9192 5.85182 17.9729 7.35399 18.5951C8.85617 19.2173 10.5091 19.3801 12.1038 19.0629C13.6985 18.7457 15.1633 17.9628 16.3131 16.8131C17.4628 15.6633 18.2457 14.1985 18.5629 12.6038C18.8801 11.0091 18.7173 9.35617 18.0951 7.854C17.4729 6.35182 16.4192 5.06789 15.0673 4.16457C13.7154 3.26124 12.1259 2.77909 10.5 2.77909V0.5Z"/>
</mask>
<path d="M10.5 0.5C12.5767 0.5 14.6068 1.11581 16.3335 2.26957C18.0602 3.42332 19.406 5.0632 20.2007 6.98182C20.9955 8.90045 21.2034 11.0116 20.7982 13.0484C20.3931 15.0852 19.3931 16.9562 17.9246 18.4246C16.4562 19.8931 14.5852 20.8931 12.5484 21.2982C10.5116 21.7034 8.40045 21.4955 6.48182 20.7007C4.5632 19.906 2.92332 18.5602 1.76957 16.8335C0.615814 15.1068 -4.95289e-08 13.0767 0 11H2.27909C2.27909 12.6259 2.76124 14.2154 3.66457 15.5673C4.56789 16.9192 5.85182 17.9729 7.35399 18.5951C8.85617 19.2173 10.5091 19.3801 12.1038 19.0629C13.6985 18.7457 15.1633 17.9628 16.3131 16.8131C17.4628 15.6633 18.2457 14.1985 18.5629 12.6038C18.8801 11.0091 18.7173 9.35617 18.0951 7.854C17.4729 6.35182 16.4192 5.06789 15.0673 4.16457C13.7154 3.26124 12.1259 2.77909 10.5 2.77909V0.5Z" stroke="#006D77" stroke-width="4" mask="url(#path-1-inside-1_1269_16296)"/>
<mask id="path-2-inside-2_1269_16296" fill="white">
<path d="M10.5 21.5C8.4233 21.5 6.39323 20.8842 4.66651 19.7304C2.9398 18.5767 1.59398 16.9368 0.799264 15.0182C0.00454448 13.0996 -0.203391 10.9884 0.201754 8.95155C0.606898 6.91475 1.60693 5.04383 3.07538 3.57538C4.54383 2.10693 6.41475 1.1069 8.45155 0.701755C10.4884 0.296611 12.5996 0.504546 14.5182 1.29927C16.4368 2.09399 18.0767 3.4398 19.2304 5.16651C20.3842 6.89323 21 8.9233 21 11L18.7209 11C18.7209 9.37406 18.2388 7.78463 17.3354 6.43271C16.4321 5.08079 15.1482 4.02709 13.646 3.40487C12.1438 2.78265 10.4909 2.61985 8.89618 2.93706C7.30148 3.25426 5.83665 4.03723 4.68694 5.18694C3.53722 6.33666 2.75426 7.80148 2.43705 9.39618C2.11985 10.9909 2.28265 12.6438 2.90487 14.146C3.52709 15.6482 4.58079 16.9321 5.93271 17.8354C7.28463 18.7388 8.87406 19.2209 10.5 19.2209L10.5 21.5Z"/>
</mask>
<path d="M10.5 21.5C8.4233 21.5 6.39323 20.8842 4.66651 19.7304C2.9398 18.5767 1.59398 16.9368 0.799264 15.0182C0.00454448 13.0996 -0.203391 10.9884 0.201754 8.95155C0.606898 6.91475 1.60693 5.04383 3.07538 3.57538C4.54383 2.10693 6.41475 1.1069 8.45155 0.701755C10.4884 0.296611 12.5996 0.504546 14.5182 1.29927C16.4368 2.09399 18.0767 3.4398 19.2304 5.16651C20.3842 6.89323 21 8.9233 21 11L18.7209 11C18.7209 9.37406 18.2388 7.78463 17.3354 6.43271C16.4321 5.08079 15.1482 4.02709 13.646 3.40487C12.1438 2.78265 10.4909 2.61985 8.89618 2.93706C7.30148 3.25426 5.83665 4.03723 4.68694 5.18694C3.53722 6.33666 2.75426 7.80148 2.43705 9.39618C2.11985 10.9909 2.28265 12.6438 2.90487 14.146C3.52709 15.6482 4.58079 16.9321 5.93271 17.8354C7.28463 18.7388 8.87406 19.2209 10.5 19.2209L10.5 21.5Z" stroke="#006D77" stroke-opacity="0.16" stroke-width="4" mask="url(#path-2-inside-2_1269_16296)"/>
</svg>
