<svg width="36" height="36" viewBox="0 0 36 36" fill="none" xmlns="http://www.w3.org/2000/svg">
<path d="M25.5 9C27.1569 9 28.5 7.65685 28.5 6C28.5 4.34315 27.1569 3 25.5 3C23.8431 3 22.5 4.34315 22.5 6C22.5 7.65685 23.8431 9 25.5 9Z" fill="#D1FFFA"/>
<path d="M23.6655 16.4535C24.0099 16.9666 24.5038 17.3613 25.0802 17.584C25.6566 17.8067 26.2876 17.8467 26.8875 17.6985L31.8615 16.455L31.137 13.545L26.163 14.7885L24.0945 11.688C23.6526 11.0258 22.9667 10.5653 22.1865 10.407L16.4175 9.25195C15.7721 9.12243 15.102 9.20899 14.5107 9.49826C13.9195 9.78753 13.4399 10.2634 13.146 10.8525L10.659 15.8265L13.3425 17.169L15.8295 12.1935L18.78 12.7845L11.151 25.5H4.5V28.5H11.151C12.198 28.5 13.1835 27.942 13.7235 27.0435L16.6005 22.2495L24.354 23.8005L27.078 31.974L29.922 31.0245L27.1995 22.8525C27.0315 22.3507 26.7342 21.9022 26.3376 21.5519C25.941 21.2017 25.4591 20.9621 24.9405 20.8575L20.382 19.947L23.04 15.516L23.6655 16.4535Z" fill="#D1FFFA"/>
</svg>
