<svg width="24" height="24" viewBox="0 0 24 24" fill="none" xmlns="http://www.w3.org/2000/svg">
<path fill-rule="evenodd" clip-rule="evenodd" d="M12 21.2162C17.09 21.2162 21.2162 17.09 21.2162 12C21.2162 6.91002 17.09 2.78378 12 2.78378C6.91002 2.78378 2.78378 6.91002 2.78378 12C2.78378 17.09 6.91002 21.2162 12 21.2162ZM23 12C23 18.0751 18.0751 23 12 23C5.92487 23 1 18.0751 1 12C1 5.92487 5.92487 1 12 1C18.0751 1 23 5.92487 23 12Z" fill="#626A6A"/>
<path d="M13.6667 15L17 12M17 12L13.6667 9M17 12L7 12" stroke="#626A6A" stroke-width="1.5" stroke-linecap="round" stroke-linejoin="round"/>
</svg>
