<svg width="190" height="186" viewBox="0 0 190 186" fill="none" xmlns="http://www.w3.org/2000/svg">
<g opacity="0.405712">
<path d="M118.115 5.51298C118.115 8.55784 115.646 11.0263 112.602 11.0263C109.557 11.0263 107.088 8.55784 107.088 5.51298C107.088 2.4683 109.557 0 112.602 0C115.646 0 118.115 2.4683 118.115 5.51298Z" fill="#067E41"/>
</g>
<g opacity="0.783546">
<path d="M74.708 19.119L71.4339 21.0093C70.8411 21.3516 70.0831 21.1484 69.7409 20.5558L63.8289 10.3157C63.4866 9.72308 63.6898 8.96517 64.2824 8.62305L67.5567 6.73259C68.1493 6.39048 68.9072 6.59351 69.2495 7.18615L75.1615 17.4262C75.5038 18.019 75.3006 18.7768 74.708 19.119Z" fill="#2F73D2"/>
</g>
<g opacity="0.783546">
<path d="M19.4776 40.6767L20.214 40.9265C21.049 41.2098 21.9701 41.0638 22.6769 40.5364L23.3002 40.0713C25.08 38.7431 27.6104 40.0322 27.582 42.2529L27.5721 43.0305C27.5607 43.9123 27.9839 44.7432 28.7039 45.2524L29.339 45.7015C31.1522 46.9838 30.7078 49.7884 28.5872 50.4477L27.8445 50.6785C27.0024 50.9403 26.3433 51.5997 26.0815 52.4418L25.8505 53.1846C25.1914 55.3052 22.3866 55.7493 21.1043 53.9362L20.6551 53.3013C20.1459 52.5813 19.315 52.1579 18.4333 52.1693L17.6556 52.179C15.4351 52.2074 14.1459 49.6773 15.4741 47.8974L15.9394 47.274C16.4668 46.5674 16.6126 45.6464 16.3294 44.8112L16.0796 44.0747C15.3664 41.9715 17.3743 39.9636 19.4776 40.6767Z" fill="#2F73D2"/>
</g>
<g opacity="0.783546">
<path d="M14.6364 79.776L15.4634 83.4652C15.6131 84.133 15.1931 84.7959 14.5252 84.9455L2.98749 87.5319C2.3197 87.6814 1.65697 87.2615 1.50705 86.5937L0.680131 82.9043C0.53057 82.2366 0.950533 81.5738 1.61832 81.4243L13.1562 78.8378C13.824 78.6883 14.4867 79.1082 14.6364 79.776Z" fill="#50D05C"/>
</g>
<g opacity="0.783546">
<path d="M26.3263 126.485C26.3263 129.529 23.858 131.998 20.8133 131.998C17.7684 131.998 15.3003 129.529 15.3003 126.485C15.3003 123.44 17.7684 120.972 20.8133 120.972C23.858 120.972 26.3263 123.44 26.3263 126.485Z" fill="#DC3224"/>
</g>
<g opacity="0.783546">
<path d="M19.4776 154.065L20.214 154.315C21.049 154.598 21.9701 154.453 22.6769 153.925L23.3002 153.46C25.08 152.132 27.6104 153.421 27.582 155.642L27.5721 156.419C27.5607 157.301 27.9839 158.132 28.7039 158.641L29.339 159.09C31.1522 160.372 30.7078 163.177 28.5872 163.836L27.8445 164.067C27.0024 164.329 26.3433 164.988 26.0815 165.831L25.8505 166.573C25.1914 168.694 22.3866 169.138 21.1043 167.325L20.6551 166.69C20.1459 165.97 19.315 165.547 18.4333 165.558L17.6556 165.568C15.4351 165.596 14.1459 163.066 15.4741 161.286L15.9394 160.663C16.4668 159.956 16.6126 159.035 16.3294 158.2L16.0796 157.463C15.3664 155.36 17.3743 153.352 19.4776 154.065Z" fill="#D97F00"/>
</g>
<g opacity="0.783546">
<path d="M161.385 35.4229C159.715 33.2454 160.232 30.0019 162.532 28.2375C164.831 26.4731 168.098 26.8129 169.769 28.9904C169.772 28.9945 169.775 28.9987 169.778 29.0026" stroke="#DC3224" stroke-width="5" stroke-linecap="round" stroke-linejoin="round"/>
</g>
<g opacity="0.783546">
<path d="M176.07 65.5527L176.807 65.8025C177.642 66.0857 178.563 65.9398 179.27 65.4124L179.893 64.9472C181.673 63.6191 184.203 64.9082 184.175 67.1289L184.165 67.9065C184.154 68.7883 184.577 69.6192 185.297 70.1284L185.932 70.5774C187.745 71.8597 187.301 74.6644 185.18 75.3237L184.437 75.5545C183.595 75.8162 182.936 76.4757 182.674 77.3178L182.443 78.0605C181.784 80.1811 178.979 80.6253 177.697 78.8121L177.248 78.1772C176.739 77.4572 175.908 77.0339 175.026 77.0452L174.248 77.0552C172.028 77.0833 170.739 74.5533 172.067 72.7735L172.532 72.1502C173.06 71.4434 173.205 70.5224 172.922 69.6871L172.672 68.9507C171.959 66.8475 173.967 64.8396 176.07 65.5527Z" fill="#D97F00"/>
</g>
<g opacity="0.783546">
<path d="M181.402 130.796C185.15 131.29 187.806 134.954 187.285 138.912C186.764 142.871 183.25 145.723 179.501 145.229C179.494 145.228 179.487 145.227 179.48 145.227" stroke="#DC3224" stroke-width="5" stroke-linecap="round" stroke-linejoin="round"/>
</g>
<g opacity="0.783546">
<path d="M169.591 177.306L166.316 179.196C165.724 179.538 164.966 179.335 164.624 178.742L158.712 168.503C158.369 167.91 158.573 167.152 159.165 166.81L162.439 164.919C163.032 164.577 163.79 164.78 164.132 165.373L170.044 175.613C170.386 176.205 170.183 176.963 169.591 177.306Z" fill="#4B4FA6"/>
</g>
<g opacity="0.783546">
<path d="M62.2852 183.28C59.9834 180.281 60.696 175.812 63.8641 173.381C67.0321 170.95 71.533 171.419 73.8348 174.418L73.848 174.435" stroke="#067E41" stroke-width="5" stroke-linecap="round" stroke-linejoin="round"/>
</g>
<path d="M166.005 87.6946C166.005 123.919 136.639 153.285 100.415 153.285C64.1906 153.285 34.8247 123.919 34.8247 87.6946C34.8247 51.47 64.1906 22.1045 100.415 22.1045C136.639 22.1045 166.005 51.47 166.005 87.6946Z" fill="#50D05C"/>
<path d="M71.4604 87.8066L90.6889 107.035L129.369 68.3555" stroke="white" stroke-width="10" stroke-linecap="round" stroke-linejoin="round"/>
</svg>
