<svg width="20" height="19" viewBox="0 0 20 19" fill="none" xmlns="http://www.w3.org/2000/svg">
<path d="M10.2378 1.15881L11.7564 5.83258C11.9906 6.55362 12.6626 7.0418 13.4207 7.0418H18.335C18.5772 7.0418 18.6779 7.3517 18.4819 7.49405L14.5062 10.3826C13.8928 10.8282 13.6362 11.6181 13.8705 12.3392L15.3891 17.0129C15.4639 17.2432 15.2003 17.4348 15.0044 17.2924L11.0286 14.4039C10.4153 13.9583 9.58473 13.9583 8.97138 14.4039L4.99564 17.2924C4.79971 17.4348 4.53609 17.2432 4.61093 17.0129L6.12952 12.3392C6.3638 11.6181 6.10715 10.8282 5.4938 10.3826L1.51806 7.49405C1.32213 7.3517 1.42283 7.0418 1.66501 7.0418H6.57929C7.33743 7.0418 8.00936 6.55362 8.24364 5.83258L9.76224 1.15881C9.83707 0.928484 10.1629 0.928488 10.2378 1.15881Z" stroke="#006D77" stroke-width="1.5"/>
</svg>
